<?xml version="1.0" encoding="UTF-8"?>
<svg width="64px" height="64px" viewBox="0 0 64 64" version="1.1" xmlns="http://www.w3.org/2000/svg" xmlns:xlink="http://www.w3.org/1999/xlink">
    <!-- Generator: Sketch 54 (76480) - https://sketchapp.com -->
    <title>noun_Chat Settings_223236</title>
    <desc>Created with Sketch.</desc>
    <g id="Page-1" stroke="none" stroke-width="1" fill="none" fill-rule="evenodd">
        <g id="Artboard" transform="translate(-150.000000, -79.000000)" fill="#FFFFFF" fill-rule="nonzero">
            <g id="noun_Chat-Settings_223236" transform="translate(150.000000, 79.000000)">
                <g id="Group">
                    <g transform="translate(34.666667, 34.666667)" id="Shape">
                        <path d="M17.28,29.0693333 C16.9973333,29.0693333 16.72,28.9786667 16.488,28.808 C16.1866667,28.5866667 15.992,28.2453333 15.952,27.872 C15.8826667,27.184 15.3306667,26.6666667 14.6666667,26.6666667 C14.0026667,26.6666667 13.4506667,27.184 13.3813333,27.8746667 C13.3413333,28.248 13.1493333,28.5893333 12.8453333,28.8106667 C12.5413333,29.032 12.1573333,29.12 11.792,29.0453333 C8.66666667,28.424 5.864,26.7866667 3.688,24.3146667 C3.44266667,24.0373333 3.32533333,23.6666667 3.36266667,23.2986667 C3.4,22.928 3.58933333,22.592 3.888,22.368 C4.44,21.952 4.60266667,21.2373333 4.27466667,20.6666667 C3.94666667,20.0986667 3.24533333,19.8826667 2.61066667,20.1493333 C2.26933333,20.2933333 1.88266667,20.2906667 1.544,20.1386667 C1.20533333,19.9866667 0.946666667,19.7013333 0.826666667,19.352 C0.272,17.7066667 0,16.1733333 0,14.6666667 C0,13.16 0.272,11.6266667 0.829333333,9.984 C0.949333333,9.632 1.208,9.34666667 1.54666667,9.19733333 C1.88266667,9.04266667 2.26933333,9.04 2.61333333,9.18666667 C3.24533333,9.456 3.94666667,9.24 4.27733333,8.66933333 C4.608,8.09866667 4.44533333,7.384 3.89066667,6.968 C3.59466667,6.74666667 3.40266667,6.408 3.36533333,6.03733333 C3.328,5.66933333 3.44533333,5.30133333 3.69066667,5.02133333 C5.86666667,2.54666667 8.66933333,0.909333333 11.7946667,0.290666667 C12.16,0.213333333 12.5466667,0.301333333 12.848,0.525333333 C13.1493333,0.746666667 13.344,1.088 13.384,1.46133333 C13.4506667,2.14933333 14.0026667,2.66666667 14.6666667,2.66666667 C15.3306667,2.66666667 15.8826667,2.14933333 15.952,1.45866667 C15.992,1.08533333 16.184,0.744 16.488,0.522666667 C16.7893333,0.298666667 17.1733333,0.208 17.5413333,0.288 C20.6666667,0.909333333 23.4693333,2.54666667 25.6453333,5.01866667 C25.8906667,5.296 26.008,5.66666667 25.9706667,6.03466667 C25.9333333,6.40533333 25.744,6.74133333 25.4453333,6.96533333 C24.8933333,7.38133333 24.7306667,8.096 25.0586667,8.66666667 C25.3893333,9.23733333 26.096,9.45333333 26.7226667,9.184 C27.064,9.04 27.4506667,9.04533333 27.7893333,9.19466667 C28.128,9.34666667 28.3866667,9.632 28.5066667,9.98133333 C29.0613333,11.6266667 29.3333333,13.16 29.3333333,14.6666667 C29.3333333,16.1733333 29.0613333,17.7066667 28.504,19.3493333 C28.384,19.7013333 28.1253333,19.9866667 27.7866667,20.136 C27.4506667,20.2853333 27.0613333,20.2906667 26.72,20.1466667 C26.0906667,19.8773333 25.3866667,20.0933333 25.056,20.664 C24.7253333,21.2346667 24.888,21.9493333 25.4426667,22.3653333 C25.7386667,22.5866667 25.9306667,22.9253333 25.968,23.296 C26.0053333,23.664 25.888,24.032 25.6426667,24.312 C23.4666667,26.7866667 20.664,28.424 17.5386667,29.0426667 C17.4533333,29.0613333 17.368,29.0693333 17.28,29.0693333 Z M14.6666667,24 C16.1786667,24 17.504,24.856 18.1706667,26.1386667 C19.896,25.6053333 21.48,24.6746667 22.832,23.3946667 C22.08,22.1786667 22.008,20.6186667 22.7493333,19.336 L22.7493333,19.336 C23.4933333,18.0506667 24.8293333,17.312 26.312,17.376 C26.5493333,16.432 26.6666667,15.5386667 26.6666667,14.6666667 C26.6666667,13.7946667 26.5493333,12.9013333 26.312,11.96 C24.8293333,11.992 23.4906667,11.2853333 22.7493333,10 C22.008,8.71466667 22.08,7.15466667 22.832,5.94133333 C21.48,4.66133333 19.8986667,3.728 18.1706667,3.19733333 C17.504,4.47733333 16.1786667,5.33333333 14.6666667,5.33333333 C13.1546667,5.33333333 11.8293333,4.47733333 11.1626667,3.19466667 C9.43733333,3.728 7.85333333,4.65866667 6.50133333,5.93866667 C7.25333333,7.15466667 7.32533333,8.71466667 6.584,9.99733333 C5.84,11.2826667 4.45866667,11.9866667 3.02133333,11.9573333 C2.784,12.8986667 2.66666667,13.7946667 2.66666667,14.6666667 C2.66666667,15.5386667 2.784,16.432 3.02133333,17.3733333 C4.464,17.312 5.84,18.0453333 6.584,19.3333333 C7.32533333,20.6186667 7.25333333,22.1786667 6.50133333,23.392 C7.85333333,24.672 9.43466667,25.6053333 11.1626667,26.136 C11.8293333,24.856 13.1546667,24 14.6666667,24 Z"></path>
                        <path d="M14.6666667,21.3333333 C10.992,21.3333333 8,18.3413333 8,14.6666667 C8,10.992 10.992,8 14.6666667,8 C18.3413333,8 21.3333333,10.992 21.3333333,14.6666667 C21.3333333,18.3413333 18.3413333,21.3333333 14.6666667,21.3333333 Z M14.6666667,10.6666667 C12.4613333,10.6666667 10.6666667,12.4613333 10.6666667,14.6666667 C10.6666667,16.872 12.4613333,18.6666667 14.6666667,18.6666667 C16.872,18.6666667 18.6666667,16.872 18.6666667,14.6666667 C18.6666667,12.4613333 16.872,10.6666667 14.6666667,10.6666667 Z"></path>
                    </g>
                    <g>
                        <path d="M1.33333333,64 C1.18133333,64 1.02666667,63.9733333 0.88,63.92 C0.352,63.728 0,63.2266667 0,62.6666667 L0,12 C0,5.384 5.384,0 12,0 L49.3333333,0 C55.9493333,0 61.3333333,5.384 61.3333333,12 L61.3333333,33.3333333 C61.3333333,34.0693333 60.736,34.6666667 60,34.6666667 C59.264,34.6666667 58.6666667,34.0693333 58.6666667,33.3333333 L58.6666667,12 C58.6666667,6.85333333 54.48,2.66666667 49.3333333,2.66666667 L12,2.66666667 C6.85333333,2.66666667 2.66666667,6.85333333 2.66666667,12 L2.66666667,58.984 L13.6426667,45.8133333 C13.896,45.5093333 14.272,45.3333333 14.6666667,45.3333333 L30.6666667,45.3333333 C31.4026667,45.3333333 32,45.9306667 32,46.6666667 C32,47.4026667 31.4026667,48 30.6666667,48 L15.2906667,48 L2.35733333,63.52 C2.09866667,63.832 1.72266667,64 1.33333333,64 Z" id="Path"></path>
                        <g transform="translate(13.333333, 21.333333)" id="Shape">
                            <path d="M4,8 C1.79466667,8 0,6.20533333 0,4 C0,1.79466667 1.79466667,0 4,0 C6.20533333,0 8,1.79466667 8,4 C8,6.20533333 6.20533333,8 4,8 Z M4,2.66666667 C3.264,2.66666667 2.66666667,3.264 2.66666667,4 C2.66666667,4.736 3.264,5.33333333 4,5.33333333 C4.736,5.33333333 5.33333333,4.736 5.33333333,4 C5.33333333,3.264 4.736,2.66666667 4,2.66666667 Z"></path>
                            <path d="M17.3333333,8 C15.128,8 13.3333333,6.20533333 13.3333333,4 C13.3333333,1.79466667 15.128,0 17.3333333,0 C19.5386667,0 21.3333333,1.79466667 21.3333333,4 C21.3333333,6.20533333 19.5386667,8 17.3333333,8 Z M17.3333333,2.66666667 C16.5973333,2.66666667 16,3.264 16,4 C16,4.736 16.5973333,5.33333333 17.3333333,5.33333333 C18.0693333,5.33333333 18.6666667,4.736 18.6666667,4 C18.6666667,3.264 18.0693333,2.66666667 17.3333333,2.66666667 Z"></path>
                            <path d="M30.6666667,8 C28.4613333,8 26.6666667,6.20533333 26.6666667,4 C26.6666667,1.79466667 28.4613333,0 30.6666667,0 C32.872,0 34.6666667,1.79466667 34.6666667,4 C34.6666667,6.20533333 32.872,8 30.6666667,8 Z M30.6666667,2.66666667 C29.9306667,2.66666667 29.3333333,3.264 29.3333333,4 C29.3333333,4.736 29.9306667,5.33333333 30.6666667,5.33333333 C31.4026667,5.33333333 32,4.736 32,4 C32,3.264 31.4026667,2.66666667 30.6666667,2.66666667 Z"></path>
                        </g>
                    </g>
                </g>
            </g>
        </g>
    </g>
</svg>