<?xml version="1.0" encoding="UTF-8"?>
<svg width="28px" height="20px" viewBox="0 0 28 20" version="1.1" xmlns="http://www.w3.org/2000/svg" xmlns:xlink="http://www.w3.org/1999/xlink">
    <!-- Generator: Sketch 54 (76480) - https://sketchapp.com -->
    <title>discord</title>
    <desc>Created with Sketch.</desc>
    <g id="Page-1" stroke="none" stroke-width="1" fill="none" fill-rule="evenodd">
        <g id="Artboard" transform="translate(-656.000000, -238.000000)" fill-rule="nonzero">
            <g id="discord" transform="translate(656.000398, 238.000000)">
                <path d="M18.952381,17.9049633 C22.0714286,17.0240109 23.2619048,15.0954395 23.2619048,15.0954395 C22.2857143,15.7382966 21.3571429,16.1906776 20.5238095,16.5002014 C19.3333333,17.0002014 18.1904762,17.3097252 17.0714286,17.5240109 C14.7857143,17.9525823 12.6904762,17.8335347 10.9047619,17.5002014 C9.54761905,17.2382966 8.38095238,16.8811538 7.4047619,16.4763919 C6.85714286,16.2621061 6.26190476,16.0002014 5.66666667,15.666868 C5.5952381,15.619249 5.52380952,15.5954395 5.45238095,15.5478204 C5.4047619,15.5240109 5.38095238,15.5002014 5.35714286,15.5002014 C4.92857143,15.2621061 4.69047619,15.0954395 4.69047619,15.0954395 C4.69047619,15.0954395 5.83333333,16.9763919 8.85714286,17.8811538 C8.14285714,18.7859157 7.26190476,19.8335347 7.26190476,19.8335347 C2,19.666868 -2.57571742e-13,16.2382966 -2.57571742e-13,16.2382966 C-2.57571742e-13,8.64305852 3.42857143,2.47639186 3.42857143,2.47639186 C6.85714286,-0.071227191 10.0952381,0.000201380573 10.0952381,0.000201380573 L10.3333333,0.285915667 C6.04761905,1.50020138 4.0952381,3.38115376 4.0952381,3.38115376 C4.0952381,3.38115376 4.61904762,3.09543948 5.5,2.7144871 C8.04761905,1.59543948 10.0714286,1.30972519 10.9047619,1.2144871 C11.047619,1.19067757 11.1666667,1.16686805 11.3095238,1.16686805 C12.7619048,0.976391857 14.4047619,0.92877281 16.1190476,1.119249 C18.3809524,1.38115376 20.8095238,2.04782043 23.2857143,3.38115376 C23.2857143,3.38115376 21.4047619,1.59543948 17.3571429,0.381153762 L17.6904762,0.000201380573 C17.6904762,0.000201380573 20.952381,-0.071227191 24.3571429,2.47639186 C24.3571429,2.47639186 27.7857143,8.64305852 27.7857143,16.2382966 C27.7857143,16.2144871 25.7857143,19.6430585 20.5238095,19.8097252 C20.5238095,19.8097252 19.6666667,18.7859157 18.952381,17.9049633 Z" id="Path" fill="#FFFFFF"></path>
                <path d="M18.1428571,8.78591567 C16.7857143,8.78591567 15.7142857,9.95258233 15.7142857,11.4049633 C15.7142857,12.8573442 16.8095238,14.0240109 18.1428571,14.0240109 C19.5,14.0240109 20.5714286,12.8573442 20.5714286,11.4049633 C20.5714286,9.95258233 19.4761905,8.78591567 18.1428571,8.78591567 Z M9.45238095,8.78591567 C8.0952381,8.78591567 7.02380952,9.95258233 7.02380952,11.4049633 C7.02380952,12.8573442 8.11904762,14.0240109 9.45238095,14.0240109 C10.8095238,14.0240109 11.8809524,12.8573442 11.8809524,11.4049633 C11.9047619,9.95258233 10.8095238,8.78591567 9.45238095,8.78591567 Z" id="Shape" fill="#000000"></path>
            </g>
        </g>
    </g>
</svg>