<?xml version="1.0" encoding="UTF-8"?>
<svg width="64px" height="64px" viewBox="0 0 64 64" version="1.1" xmlns="http://www.w3.org/2000/svg" xmlns:xlink="http://www.w3.org/1999/xlink">
    <!-- Generator: Sketch 54 (76480) - https://sketchapp.com -->
    <title>noun_price_2096749</title>
    <desc>Created with Sketch.</desc>
    <g id="Page-1" stroke="none" stroke-width="1" fill="none" fill-rule="evenodd">
        <g id="Artboard" transform="translate(-71.000000, -79.000000)" fill="#FFFFFF" fill-rule="nonzero">
            <g id="noun_price_2096749" transform="translate(71.000000, 79.000000)">
                <path d="M1.68847983,0.688479831 C1.42321633,0.688326013 1.16877294,0.793633403 0.981203172,0.981203172 C0.793633403,1.16877294 0.688326013,1.42321633 0.688479831,1.68847983 L0.68848,62.31148 C0.688326013,62.5767437 0.793633403,62.8311871 0.981203172,63.0187568 C1.16877294,63.2063266 1.42321633,63.311634 1.68848,63.31148 L52.17969,63.31148 C52.4430218,63.3116548 52.6957526,63.207756 52.88282,63.02242 L63.01465,52.999 C63.2047641,52.8112993 63.3116994,52.5552208 63.31153,52.28806 L63.31153,1.68848 C63.311684,1.42321633 63.2063766,1.16877294 63.0188068,0.981203172 C62.8312371,0.793633403 62.5767937,0.688326013 62.31153,0.68848 L1.68847983,0.688479831 Z M61.31148,2.68848 L61.31148,10.16211 L2.68848,10.16211 L2.68848,2.68848 L61.31148,2.68848 Z M2.68848,12.16211 L61.31148,12.16211 L61.31148,50.36523 L51.62012,50.36523 C51.3548563,50.365076 51.1004129,50.4703834 50.9128432,50.6579532 C50.7252734,50.8455229 50.619966,51.0999663 50.62012,51.36523 L50.62012,61.31152 L2.68848,61.31152 L2.68848,12.16211 Z M52.62012,60.46911 L52.62012,52.36523 L60.812,52.36523 L52.62012,60.46911 Z" id="Shape"></path>
                <circle id="Oval" cx="6.43883" cy="6.75073" r="1.01796"></circle>
                <circle id="Oval" cx="11.4608" cy="6.75073" r="1.01796"></circle>
                <circle id="Oval" cx="16.4828" cy="6.75073" r="1.01796"></circle>
                <path d="M26.8798798,33.1865198 C26.6146163,33.186366 26.3601729,33.2916734 26.1726032,33.4792432 C25.9850334,33.6668129 25.879726,33.9212563 25.8798798,34.1865198 L25.87988,49.58691 C25.87988,50.1391947 26.3275953,50.58691 26.87988,50.58691 C27.4321647,50.58691 27.87988,50.1391947 27.87988,49.58691 L27.8798798,34.1865198 C27.880034,33.9212563 27.7747266,33.6668129 27.5871568,33.4792432 C27.3995871,33.2916734 27.1451437,33.186366 26.8798798,33.1865198 Z" id="Path"></path>
                <path d="M19.3662098,42.9540998 C19.1009463,42.953946 18.8465029,43.0592534 18.6589332,43.2468232 C18.4713634,43.4343929 18.366056,43.6888363 18.3662098,43.9540998 L18.36621,49.58691 C18.36621,50.1391947 18.8139253,50.58691 19.36621,50.58691 C19.9184947,50.58691 20.36621,50.1391947 20.36621,49.58691 L20.3662098,43.9540998 C20.366364,43.6888363 20.2610566,43.4343929 20.0734868,43.2468232 C19.8859171,43.0592534 19.6314737,42.953946 19.3662098,42.9540998 Z" id="Path"></path>
                <path d="M35.2949198,36.0409998 C35.0296563,36.040846 34.7752129,36.1461534 34.5876432,36.3337232 C34.4000734,36.5212929 34.294766,36.7757363 34.2949198,37.0409998 L34.29492,49.5869 C34.29492,50.1391847 34.7426353,50.5869 35.29492,50.5869 C35.8472047,50.5869 36.29492,50.1391847 36.29492,49.5869 L36.2949198,37.0409998 C36.295074,36.7757363 36.1897666,36.5212929 36.0021968,36.3337232 C35.8146271,36.1461534 35.5601837,36.040846 35.2949198,36.0409998 Z" id="Path"></path>
                <path d="M43.5585898,28.9794898 C43.2933263,28.979336 43.0388829,29.0846434 42.8513132,29.2722132 C42.6637434,29.4597829 42.558436,29.7142263 42.5585898,29.9794898 L42.55859,49.58691 C42.55859,50.1391947 43.0063053,50.58691 43.55859,50.58691 C44.1108747,50.58691 44.55859,50.1391947 44.55859,49.58691 L44.5585898,29.9794898 C44.558744,29.7142263 44.4534366,29.4597829 44.2658668,29.2722132 C44.0782971,29.0846434 43.8238537,28.979336 43.5585898,28.9794898 L43.5585898,28.9794898 Z" id="Path"></path>
                <path d="M48.27637,18.457 C48.2679386,18.4179006 48.2569891,18.379387 48.24359,18.3417 C48.223773,18.20666 48.1693797,18.0790372 48.08569,17.97122 C48.0670171,17.9341865 48.0458935,17.8984404 48.02246,17.86422 C48.00714,17.84713 47.98584,17.84066 47.96966,17.82491 C47.8708385,17.7411311 47.7621659,17.6697204 47.64605,17.61226 C47.5883677,17.5919239 47.5288739,17.5771467 47.46838,17.56813 C47.401274,17.5526302 47.3327147,17.5442836 47.26385,17.54323 C47.24359,17.54366 47.22552,17.53438 47.20507,17.53609 L40.52538,18.03609 C40.1687165,18.0620354 39.8530663,18.2764931 39.6975654,18.5985203 C39.5420645,18.9205474 39.5703926,19.3011058 39.7718577,19.596561 C39.9733228,19.8920163 40.3172459,20.0573766 40.67382,20.03023 L44.43609,19.74843 L34.0752,29.08105 L27.30762,25.69043 C26.8956062,25.4850518 26.3966815,25.5865232 26.09762,25.93652 L15.53027,38.34375 C15.1721465,38.7644363 15.2228637,39.3957865 15.64355,39.75391 C16.0642363,40.1120335 16.6955865,40.0613163 17.05371,39.64063 L27.1123,27.83008 L33.78906,31.17481 C34.1573332,31.357796 34.5999469,31.2978255 34.90625,31.02344 L46.43689,20.63764 L46.71089,24.24415 C46.7508736,24.7648909 47.1847068,25.1672523 47.70698,25.16798 C47.73237,25.16798 47.75776,25.16698 47.78413,25.16505 C48.0485831,25.1448834 48.2941884,25.020471 48.4668978,24.8191911 C48.6396072,24.6179112 48.7252681,24.3562576 48.70503,24.09181 L48.27637,18.457 Z" id="Path"></path>
            </g>
        </g>
    </g>
</svg>