<?xml version="1.0" encoding="UTF-8"?>
<svg width="200px" height="200px" viewBox="0 0 200 200" version="1.1" xmlns="http://www.w3.org/2000/svg" xmlns:xlink="http://www.w3.org/1999/xlink">
    <!-- Generator: Sketch 54 (76480) - https://sketchapp.com -->
    <title>Artboard</title>
    <desc>Created with Sketch.</desc>
    <g id="Artboard" stroke="none" stroke-width="1" fill="none" fill-rule="evenodd">
        <path d="M94.600444,160 C86.8830543,160 77.0163383,158.326915 65,154.980695 L65,138.918919 C77.9486404,144.890635 88.5922632,147.876448 96.9311876,147.876448 C103.353713,147.876448 108.520143,146.203363 112.430633,142.857143 C116.341122,139.510923 118.296337,135.109422 118.296337,129.65251 C118.296337,125.173723 117.014441,121.364237 114.45061,118.223938 C111.88678,115.083639 107.160597,111.583031 100.27192,107.722008 L92.3473918,103.166023 C82.5582196,97.6061498 75.6566978,92.3681069 71.6426193,87.4517375 C67.6285408,82.535368 65.6215316,76.8082695 65.6215316,70.2702703 C65.6215316,61.4671375 68.8327463,54.2213927 75.2552719,48.5328185 C81.6777976,42.8442444 89.8612155,40 99.8057714,40 C108.662641,40 118.01142,41.4671668 127.852386,44.4015444 L127.852386,59.2277992 C115.732459,54.4916108 106.694443,52.1235521 100.738069,52.1235521 C95.0924616,52.1235521 90.431021,53.6164587 86.7536071,56.6023166 C83.0761932,59.5881745 81.2375139,63.3461807 81.2375139,67.8764479 C81.2375139,71.6859907 82.5841523,75.0579004 85.2774695,77.992278 C87.9707867,80.9266556 92.8911962,84.4272641 100.038846,88.4942085 L108.27414,93.1274131 C118.218696,98.7387668 125.159063,104.041159 129.09545,109.034749 C133.031836,114.028339 135,120.025705 135,127.027027 C135,136.962727 131.309693,144.942055 123.928968,150.965251 C116.548243,156.988447 106.772166,160 94.600444,160 Z" id="S" fill="#FFFFFF" fill-rule="nonzero"></path>
        <path d="M135,200 L135,189 L65,189 L65,200 L0,200 L0,0 L200,0 L200,200 L135,200 Z M12,12 L12,189 L189,189 L189,12 L12,12 Z" id="Combined-Shape" fill="#FFFFFF" fill-rule="nonzero"></path>
    </g>
</svg>