<?xml version="1.0" encoding="UTF-8"?>
<svg width="90px" height="17px" viewBox="0 0 90 17" version="1.1" xmlns="http://www.w3.org/2000/svg" xmlns:xlink="http://www.w3.org/1999/xlink">
    <!-- Generator: Sketch 51 (57462) - http://www.bohemiancoding.com/sketch -->
    <title>Group 9</title>
    <desc>Created with Sketch.</desc>
    <defs></defs>
    <g id="Page-1" stroke="none" stroke-width="1" fill="none" fill-rule="evenodd">
        <g id="DexWallet-Landing-Page-02@2x" transform="translate(-972.000000, -2108.000000)">
            <rect fill="#FFFFFF" x="0" y="0" width="1920" height="2155"></rect>
            <g id="Group-5" transform="translate(0.000000, 2075.000000)" fill="#78B4E5" fill-rule="nonzero">
                <g id="Group-4" transform="translate(859.000000, 33.000000)">
                    <g id="Group-9" transform="translate(113.000000, 0.000000)">
                        <path d="M24.3966641,16.7994733 L16.2777312,16.7994733 C15.2143797,16.7994733 14.8500428,15.8953692 15.6329677,15.1842243 L16.3591533,14.5246167 C16.8793896,14.0520766 17.816306,13.691426 18.524673,13.691426 L24.3971185,13.691426 C24.9925909,13.691426 25.4812033,14.1722103 25.4812033,14.7607673 L25.4812033,15.730132 C25.4812033,16.3246109 24.9977413,16.7994733 24.3966641,16.7994733 Z M24.3966641,0.908661111 C24.9977413,0.908661111 25.4812033,1.38352343 25.4812033,1.97800239 L25.4812033,2.94736706 C25.4812033,3.53592406 24.9925909,4.01670834 24.3971185,4.01670834 L18.524673,4.01670834 C17.816306,4.01670834 16.8793896,3.65605772 16.3591533,3.18351771 L15.6329677,2.52391006 C14.8500428,1.8127652 15.2143797,0.908661111 16.2777312,0.908661111 L24.3966641,0.908661111 Z M15.2123797,8.36433511 C15.2123797,7.77723485 15.7008587,7.30004357 16.3003619,7.30004357 L25.0967721,7.30004357 C25.6965948,7.30004357 26.1847544,7.77560035 26.1847544,8.36433511 L26.1847544,9.32457961 C26.1847544,9.91167987 25.6962753,10.3888712 25.0967721,10.3888712 L16.3003619,10.3888712 C15.7005393,10.3888712 15.2123797,9.91331437 15.2123797,9.32457961 L15.2123797,8.36433511 Z M48.2486169,14.2235227 C48.5604857,13.914913 49.1131474,13.691426 49.5594775,13.691426 L55.9082225,13.691426 C56.5077077,13.691426 56.9978409,14.1704859 56.9978409,14.7607673 L56.9978409,15.730132 C56.9978409,16.3237692 56.5169428,16.7994733 55.9171319,16.7994733 L47.4861782,16.7994733 C46.7115128,16.7994733 46.3917832,16.0609522 46.9415088,15.5169713 L48.2486169,14.2235227 Z M46.1236943,1.97107225 C46.1236943,1.38587273 46.6097494,0.908661111 47.207312,0.908661111 L48.1849932,0.908661111 C48.7820322,0.908661111 49.2686109,1.38629872 49.2686109,1.97406837 L49.2686109,9.85397861 C49.2686109,10.2883408 49.040494,10.8319526 48.7285061,11.1406801 L47.4335753,12.4220787 C46.880023,12.9698464 46.1236943,12.6660566 46.1236943,11.8957869 L46.1236943,1.97107225 Z M64.5565516,13.2145747 C64.3189209,13.7095373 63.9307853,14.512001 63.689124,15.0079588 L63.1574452,16.099115 C62.9160089,16.5946111 62.2768387,16.99629 61.7263077,16.99629 L60.2129229,16.99629 C59.6639639,16.99629 59.4151251,16.5876626 59.6517317,16.094831 L65.7522603,3.3879442 C66.7092934,1.39452501 68.2607389,1.39408415 69.2151469,3.38203549 L72.7136645,10.6691527 C72.9539111,11.1695662 72.700084,11.5752315 72.143174,11.5752315 L70.6122538,11.5752315 C70.056934,11.5752315 69.4108675,11.1654638 69.1772047,10.676684 L69.2075006,10.7400575 C68.2556872,8.74903798 66.703155,8.75472697 65.7503196,10.7309932 L65.8565086,10.5107477 C65.6145681,11.0125539 65.227775,11.8164788 64.9881683,12.3155573 L64.5565516,13.2145747 Z M75.4174183,15.8868367 C75.6704972,16.3802572 75.4293329,16.7802536 74.875229,16.7802536 L73.3520226,16.7802536 C72.7995009,16.7802536 72.1475677,16.3764433 71.9001931,15.8868367 L71.2423586,14.5848429 C70.993057,14.0914224 71.2485768,13.691426 71.7846745,13.691426 L73.2976605,13.691426 C73.8464749,13.691426 74.4984939,14.0952363 74.7496166,14.5848429 L75.4174183,15.8868367 Z M89.332872,12.0725057 C89.332872,12.7231534 89.2081896,13.3354474 88.9600341,13.9040967 C88.7200614,14.4736878 88.3765728,14.9671434 87.9271939,15.4084059 C87.5096952,15.8379849 87.0051704,16.1699878 86.370221,16.449504 C85.7881093,16.6945311 85.1646969,16.8169899 84.5022343,16.8169899 L80.3545433,16.8169899 C79.2532621,16.8169899 78.3604973,15.9180139 78.3604973,14.8134751 L78.3604973,15.7124574 C78.3604973,14.6059468 79.2535586,13.7089427 80.3545433,13.7089427 L84.5022343,13.7089427 C84.7389618,13.7089427 84.9538888,13.6716908 85.148508,13.5921557 C85.3734772,13.5071723 85.5492879,13.3933637 85.6998808,13.2295727 C85.8454976,13.0865529 85.9647864,12.9066267 86.0522635,12.7004261 C86.1408052,12.4917157 86.1879554,12.2770091 86.1879554,12.0725057 C86.1879554,11.8680024 86.1408052,11.6532957 86.0522635,11.4445853 C85.9647864,11.2383847 85.8454976,11.0584585 85.6998808,10.9154387 C85.5219114,10.7406434 85.3574624,10.6224609 85.1876453,10.5528557 C84.946057,10.4615943 84.7265518,10.4168491 84.5022343,10.4168491 L77.7640019,10.4168491 C76.6560444,10.4168491 75.7578675,9.5234322 75.7578675,8.40834352 L75.7578675,9.33652712 C75.7578675,8.22726011 76.660733,7.32802153 77.7640019,7.32802153 L84.5022343,7.32802153 C84.7447918,7.32802153 84.9487004,7.28875252 85.148508,7.19201496 C85.3734772,7.10703152 85.5492879,6.99322293 85.6998808,6.82943196 C85.8454976,6.68641215 85.9647864,6.50648591 86.0522635,6.30028533 C86.1416762,6.08952194 86.1879554,5.87464916 86.1879554,5.65314529 C86.1879554,5.44864193 86.1408052,5.23393527 86.0522635,5.0252249 C85.9647864,4.81902432 85.8454976,4.63909807 85.6900688,4.48592075 C85.5492879,4.3322873 85.3734772,4.2184787 85.1415569,4.13076063 C84.9538888,4.0539602 84.7389618,4.01670834 84.5022343,4.01670834 L80.511153,4.01670834 C79.4107704,4.01670834 77.8831322,3.38774861 77.0953358,2.60818474 L76.8012627,2.31718471 C76.0151415,1.53927861 76.2693606,0.908661111 77.3802461,0.908661111 L84.5022343,0.908661111 C85.1445502,0.908661111 85.7668262,1.03089668 86.3743252,1.2779141 C87.0051704,1.5556632 87.5096952,1.88766612 87.9227881,2.3128161 C88.3765728,2.75850763 88.7200614,3.25196321 88.9587131,3.81847381 C89.2081896,4.39020359 89.332872,5.00249759 89.332872,5.65314529 C89.332872,6.89169301 88.911417,7.96835935 88.0717515,8.86099372 C88.9117144,9.7384845 89.332872,10.8164708 89.332872,12.0725057 Z M1.09920664,16.8169899 C0.0234487572,16.8169899 -0.361847571,15.9061092 0.397894625,15.1543064 L0.936609854,14.6212208 C1.46021341,14.103089 2.42526296,13.7089427 3.16912155,13.7089427 L4.57405856,13.7089427 C5.25079885,13.7089427 5.90212091,13.5855399 6.49395414,13.3495961 C7.12496918,13.0785444 7.652315,12.7261137 8.07693311,12.2916917 C8.53154208,11.8265864 8.88234151,11.3130944 9.1371408,10.7411658 C9.39919009,10.134533 9.52774346,9.51624561 9.52774346,8.8628255 C9.52774346,8.20974208 9.39932479,7.59142572 9.14072986,6.99266676 C8.87750522,6.40170318 8.52371467,5.89207063 8.06123654,5.43784072 C7.60935376,4.99401719 7.06829539,4.6311541 6.49413806,4.38423774 C5.88584748,4.14143549 5.23501369,4.01670834 4.57405856,4.01670834 L3.16912155,4.01670834 C2.42574451,4.01670834 1.45971392,3.62206773 0.936609854,3.10443016 L0.397894625,2.57134458 C-0.362682749,1.81871533 0.0195496766,0.908661111 1.09920664,0.908661111 L4.57405856,0.908661111 C5.666528,0.908661111 6.70196476,1.11922501 7.71775256,1.54681489 C8.69036444,1.96475233 9.5588652,2.5422351 10.2841439,3.25457855 C11.016509,3.97388208 11.588687,4.80174595 12.0432987,5.79625953 C12.4652412,6.74349893 12.6726601,7.75826799 12.6726601,8.8628255 C12.6726601,9.96738301 12.4652412,10.9821521 12.0411877,11.9340693 C11.5949025,12.9103084 11.0267991,13.7411903 10.3010942,14.4736794 C9.57100699,15.1907077 8.69944254,15.7656318 7.71774491,16.1788394 C6.73163919,16.6025575 5.67592958,16.8169899 4.57405856,16.8169899 L1.09920664,16.8169899 Z" id="Combined-Shape-Copy-27"></path>
                        <g id="Group-3" transform="translate(28.082113, 0.816651)">
                            <path d="M0.957564979,0.0920098803 L2.5386217,0.0920098803 C2.99996629,0.0920098803 3.55112831,0.356964831 3.83626391,0.717205692 L7.40348812,5.22404353 C7.73808269,5.64677095 7.73673681,6.2957561 7.40031643,6.7205823 L6.76925831,7.51747228 C6.36837495,8.02370128 5.64978473,8.03042733 5.24683008,7.52626424 L0.326221129,1.36976646 C-0.135870138,0.791613662 0.207451289,0.0920098803 0.957564979,0.0920098803 Z M14.9470729,0.0920098803 C15.6971866,0.0920098803 16.040508,0.791613662 15.5784167,1.36976646 L10.6578078,7.52626424 C10.2548532,8.03042733 9.53626292,8.02370128 9.13537957,7.51747228 L8.50432145,6.7205823 C8.16790107,6.2957561 8.16655518,5.64677095 8.50114976,5.22404353 L12.068374,0.717205692 C12.3535096,0.356964831 12.9046716,0.0920098803 13.3660162,0.0920098803 L14.9470729,0.0920098803 Z M14.9470729,15.8900157 L13.3660162,15.8900157 C12.9046716,15.8900157 12.3535096,15.6250608 12.068374,15.2648199 L8.50114976,10.7579821 C8.16655518,10.3352546 8.16790107,9.68626948 8.50432145,9.26144329 L9.13537957,8.46455331 C9.53626292,7.95832431 10.2548532,7.95159826 10.6578078,8.45576135 L15.5784167,14.6122591 C16.040508,15.1904119 15.6971866,15.8900157 14.9470729,15.8900157 Z M0.957564979,15.8900157 C0.207451289,15.8900157 -0.135870138,15.1904119 0.326221129,14.6122591 L5.24683008,8.45576135 C5.64978473,7.95159826 6.36837495,7.95832431 6.76925831,8.46455331 L7.40031643,9.26144329 C7.73673681,9.68626948 7.73808269,10.3352546 7.40348812,10.7579821 L3.83626391,15.2648199 C3.55112831,15.6250608 2.99996629,15.8900157 2.5386217,15.8900157 L0.957564979,15.8900157 Z" id="Combined-Shape-Copy-26"></path>
                        </g>
                    </g>
                </g>
            </g>
        </g>
    </g>
</svg>