<?xml version="1.0" encoding="UTF-8"?>
<svg width="65px" height="65px" viewBox="0 0 65 65" version="1.1" xmlns="http://www.w3.org/2000/svg" xmlns:xlink="http://www.w3.org/1999/xlink">
    <!-- Generator: Sketch 54 (76480) - https://sketchapp.com -->
    <title>noun_Interest_1783832</title>
    <desc>Created with Sketch.</desc>
    <g id="Page-1" stroke="none" stroke-width="1" fill="none" fill-rule="evenodd">
        <g id="Artboard" transform="translate(-313.000000, -79.000000)" fill="#FFFFFF" fill-rule="nonzero">
            <g id="noun_Interest_1783832" transform="translate(313.000000, 79.000000)">
                <path d="M7.5,11 C4.43571429,11 2,8.56428571 2,5.5 C2,2.43571429 4.43571429,0 7.5,0 C10.5642857,0 13,2.43571429 13,5.5 C13,8.56428571 10.5642857,11 7.5,11 Z M7.5,3.14285714 C6.16428571,3.14285714 5.14285714,4.16428571 5.14285714,5.5 C5.14285714,6.83571429 6.16428571,7.85714286 7.5,7.85714286 C8.83571429,7.85714286 9.85714286,6.83571429 9.85714286,5.5 C9.85714286,4.16428571 8.83571429,3.14285714 7.5,3.14285714 Z" id="Shape"></path>
                <path d="M21.5,23 C18.4357143,23 16,20.5642857 16,17.5 C16,14.4357143 18.4357143,12 21.5,12 C24.5642857,12 27,14.4357143 27,17.5 C27,20.5642857 24.5642857,23 21.5,23 Z M21.5,15.1428571 C20.1642857,15.1428571 19.1428571,16.1642857 19.1428571,17.5 C19.1428571,18.8357143 20.1642857,19.8571429 21.5,19.8571429 C22.8357143,19.8571429 23.8571429,18.8357143 23.8571429,17.5 C23.8571429,16.1642857 22.8357143,15.1428571 21.5,15.1428571 Z" id="Shape"></path>
                <path d="M7.63273753,22 C7.30957224,22 6.98640694,21.9185816 6.66324165,21.6743266 C5.93611974,21.104398 5.7745371,20.1273777 6.34007636,19.3946124 L20.0746013,0.668389211 C20.6401406,-0.0643760447 21.6096364,-0.227212768 22.3367583,0.342715764 C23.0638803,0.912644297 23.2254629,1.88966464 22.6599236,2.62242989 L8.9253987,21.3486531 C8.60223341,21.7557449 8.11748547,22 7.63273753,22 Z" id="Path"></path>
                <path d="M63.375,65 L1.625,65 C0.73125,65 0,64.325 0,63.5 C0,62.675 0.73125,62 1.625,62 L63.375,62 C64.26875,62 65,62.675 65,63.5 C65,64.325 64.26875,65 63.375,65 Z" id="Path"></path>
                <path d="M1.5,65 C0.675,65 0,64.28 0,63.4 L0,58.6 C0,57.72 0.675,57 1.5,57 C2.325,57 3,57.72 3,58.6 L3,63.4 C3,64.28 2.325,65 1.5,65 Z" id="Path"></path>
                <path d="M13.5,65 C12.675,65 12,64.2588235 12,63.3529412 L12,52.6470588 C12,51.7411765 12.675,51 13.5,51 C14.325,51 15,51.7411765 15,52.6470588 L15,63.3529412 C15,64.2588235 14.325,65 13.5,65 Z" id="Path"></path>
                <path d="M25.5,65 C24.675,65 24,64.2928571 24,63.4285714 L24,55.5714286 C24,54.7071429 24.675,54 25.5,54 C26.325,54 27,54.7071429 27,55.5714286 L27,63.4285714 C27,64.2928571 26.325,65 25.5,65 Z" id="Path"></path>
                <path d="M38.5,65 C37.675,65 37,64.2730769 37,63.3846154 L37,45.6153846 C37,44.7269231 37.675,44 38.5,44 C39.325,44 40,44.7269231 40,45.6153846 L40,63.3846154 C40,64.2730769 39.325,65 38.5,65 Z" id="Path"></path>
                <path d="M51.5,65 C50.675,65 50,64.2636364 50,63.3636364 L50,48.6363636 C50,47.7363636 50.675,47 51.5,47 C52.325,47 53,47.7363636 53,48.6363636 L53,63.3636364 C53,64.2636364 52.325,65 51.5,65 Z" id="Path"></path>
                <path d="M63.5,65 C62.675,65 62,64.276087 62,63.3913043 L62,29.6086957 C62,28.723913 62.675,28 63.5,28 C64.325,28 65,28.723913 65,29.6086957 L65,63.3913043 C65,64.276087 64.325,65 63.5,65 Z" id="Path"></path>
                <path d="M1.63212976,46 C0.81949387,46 0.0881215713,45.3577364 0.00685798251,44.5549069 C-0.0744056062,43.6717944 0.575703104,42.8689648 1.46960258,42.7886819 C1.79465694,42.7083989 38.1194811,38.4534024 62.0922398,7.62474858 C62.6610849,6.902202 63.636248,6.82191905 64.3676203,7.30361677 C65.0989926,7.86559744 65.1802562,8.82899287 64.6926746,9.55153944 C39.8260165,41.5041546 2.20097488,46 1.79465694,46 C1.71339335,46 1.71339335,46 1.63212976,46 Z" id="Path"></path>
                <path d="M63.375,10 L53.625,10 C52.73125,10 52,9.325 52,8.5 C52,7.675 52.73125,7 53.625,7 L63.375,7 C64.26875,7 65,7.675 65,8.5 C65,9.325 64.26875,10 63.375,10 Z" id="Path"></path>
                <path d="M63.5,20 C62.675,20 62,19.26875 62,18.375 L62,8.625 C62,7.73125 62.675,7 63.5,7 C64.325,7 65,7.73125 65,8.625 L65,18.375 C65,19.26875 64.325,20 63.5,20 Z" id="Path"></path>
            </g>
        </g>
    </g>
</svg>