<?xml version="1.0" encoding="UTF-8"?>
<svg width="135px" height="40px" viewBox="0 0 135 40" version="1.1" xmlns="http://www.w3.org/2000/svg" xmlns:xlink="http://www.w3.org/1999/xlink">
    <!-- Generator: Sketch 59.1 (86144) - https://sketch.com -->
    <title>buycrypto</title>
    <desc>Created with Sketch.</desc>
    <defs>
        <path d="M12.86,27 C12.726666,27 12.6100005,26.9500005 12.51,26.85 C12.4099995,26.7499995 12.36,26.633334 12.36,26.5 L12.36,13.52 C12.36,13.3733326 12.4066662,13.2500005 12.5,13.15 C12.5933338,13.0499995 12.7133326,13 12.86,13 L19.04,13 C20.7333418,13 21.9933292,13.3466632 22.82,14.04 C23.6466708,14.7333368 24.06,15.7199936 24.06,17 C24.06,17.6400032 23.8900017,18.193331 23.55,18.66 C23.2099983,19.126669 22.8333354,19.4666656 22.42,19.68 C22.9666694,19.9200012 23.4266648,20.3166639 23.8,20.87 C24.1733352,21.4233361 24.36,22.0466632 24.36,22.74 C24.36,24.0866734 23.9166711,25.1333296 23.03,25.88 C22.1433289,26.6266704 20.8733416,27 19.22,27 L12.86,27 Z M18.62,18.54 C19.1133358,18.54 19.493332,18.406668 19.76,18.14 C20.026668,17.873332 20.16,17.5266688 20.16,17.1 C20.16,16.6866646 20.0300013,16.3500013 19.77,16.09 C19.5099987,15.8299987 19.1266692,15.7 18.62,15.7 L16.12,15.7 L16.12,18.54 L18.62,18.54 Z M18.8,24.3 C19.3200026,24.3 19.7233319,24.1500015 20.01,23.85 C20.2966681,23.5499985 20.44,23.1800022 20.44,22.74 C20.44,22.2866644 20.2933348,21.9100015 20,21.61 C19.7066652,21.3099985 19.3066692,21.16 18.8,21.16 L16.12,21.16 L16.12,24.3 L18.8,24.3 Z M30.1,27.2 C28.9266608,27.2 27.9800036,26.8066706 27.26,26.02 C26.5399964,25.2333294 26.18,24.1200072 26.18,22.68 L26.18,17.1 C26.18,16.9533326 26.2299995,16.8333338 26.33,16.74 C26.4300005,16.6466662 26.546666,16.6 26.68,16.6 L29.34,16.6 C29.4866674,16.6 29.6099995,16.6466662 29.71,16.74 C29.8100005,16.8333338 29.86,16.9533326 29.86,17.1 L29.86,22.56 C29.86,23.8000062 30.4133278,24.42 31.52,24.42 C32.053336,24.42 32.4699985,24.2566683 32.77,23.93 C33.0700015,23.6033317 33.22,23.1466696 33.22,22.56 L33.22,17.1 C33.22,16.9533326 33.2699995,16.8333338 33.37,16.74 C33.4700005,16.6466662 33.5933326,16.6 33.74,16.6 L36.38,16.6 C36.5266674,16.6 36.6466662,16.6466662 36.74,16.74 C36.8333338,16.8333338 36.88,16.9533326 36.88,17.1 L36.88,26.5 C36.88,26.633334 36.8333338,26.7499995 36.74,26.85 C36.6466662,26.9500005 36.5266674,27 36.38,27 L33.94,27 C33.7933326,27 33.6700005,26.9533338 33.57,26.86 C33.4699995,26.7666662 33.42,26.6466674 33.42,26.5 L33.42,25.74 C32.7266632,26.7133382 31.6200076,27.2 30.1,27.2 Z M41.12,30.8 C40.9999994,30.8 40.9000004,30.7600004 40.82,30.68 C40.7399996,30.6 40.7,30.5000006 40.7,30.38 C40.7,30.2866662 40.7133332,30.2000004 40.74,30.12 L42.32,26.36 L38.48,17.28 C38.4399998,17.1733328 38.42,17.1 38.42,17.06 C38.4466668,16.926666 38.5033329,16.8166671 38.59,16.73 C38.6766671,16.6433329 38.7799994,16.6 38.9,16.6 L41.28,16.6 C41.5600014,16.6 41.7533328,16.7399986 41.86,17.02 L44.08,22.7 L46.36,17.02 C46.493334,16.7399986 46.693332,16.6 46.96,16.6 L49.32,16.6 C49.4400006,16.6 49.5433329,16.6433329 49.63,16.73 C49.7166671,16.8166671 49.76,16.9133328 49.76,17.02 C49.76,17.1133338 49.7466668,17.1999996 49.72,17.28 L44.06,30.38 C43.926666,30.6600014 43.7200014,30.8 43.44,30.8 L41.12,30.8 Z M60.9,27.2 C58.9933238,27.2 57.4966721,26.7400046 56.41,25.82 C55.3233279,24.8999954 54.746667,23.5533422 54.68,21.78 L54.6688889,21.3444445 C54.6649382,21.1172847 54.6623045,20.8453515 54.6609876,20.5286434 L54.6609876,19.5024677 C54.6632922,18.9378582 54.6696296,18.5103718 54.68,18.22 C54.746667,16.486658 55.3299945,15.1500047 56.43,14.21 C57.5300055,13.2699953 59.0199906,12.8 60.9,12.8 C62.0866726,12.8 63.1499953,12.9933314 64.09,13.38 C65.0300047,13.7666686 65.7733306,14.326663 66.32,15.06 C66.8666694,15.793337 67.1533332,16.659995 67.18,17.66 C67.18,17.7800006 67.1366671,17.8799996 67.05,17.96 C66.9633329,18.0400004 66.8600006,18.08 66.74,18.08 L63.9,18.08 C63.7133324,18.08 63.5766671,18.0433337 63.49,17.97 C63.4033329,17.8966663 63.326667,17.760001 63.26,17.56 C63.0733324,16.9066634 62.7900019,16.4500013 62.41,16.19 C62.0299981,15.9299987 61.5266698,15.8 60.9,15.8 C59.4561039,15.8 58.6795946,16.5714506 58.5704514,18.114374 L58.56,18.32 C58.5533333,18.5000009 58.5483333,18.7283333 58.545,19.0049993 L58.54,19.98 C58.54,20.7266704 58.5466666,21.2933314 58.56,21.68 C58.6133336,23.3600084 59.3933258,24.2 60.9,24.2 C61.5133364,24.2 62.0166647,24.066668 62.41,23.8 C62.7596314,23.5629618 63.0223454,23.1784385 63.198148,22.6464206 L63.26,22.44 C63.3133336,22.239999 63.3866662,22.1033337 63.48,22.03 C63.5733338,21.9566663 63.7133324,21.92 63.9,21.92 L66.74,21.92 C66.8600006,21.92 66.9633329,21.9599996 67.05,22.04 C67.1366671,22.1200004 67.18,22.2199994 67.18,22.34 C67.1533332,23.340005 66.8666694,24.206663 66.32,24.94 C65.7733306,25.673337 65.0300047,26.2333314 64.09,26.62 C63.1499953,27.0066686 62.0866726,27.2 60.9,27.2 Z M69.5,27 C69.366666,27 69.2500005,26.9500005 69.15,26.85 C69.0499995,26.7499995 69,26.633334 69,26.5 L69,17.12 C69,16.9733326 69.0466662,16.8500005 69.14,16.75 C69.2333338,16.6499995 69.3533326,16.6 69.5,16.6 L71.94,16.6 C72.0866674,16.6 72.2099995,16.6499995 72.31,16.75 C72.4100005,16.8500005 72.46,16.9733326 72.46,17.12 L72.46,17.88 C72.8333352,17.4666646 73.2699975,17.1500011 73.77,16.93 C74.2700025,16.7099989 74.8266636,16.6 75.44,16.6 L76.34,16.6 C76.4866674,16.6 76.6066662,16.6466662 76.7,16.74 C76.7933338,16.8333338 76.84,16.9533326 76.84,17.1 L76.84,19.28 C76.84,19.413334 76.7933338,19.5299995 76.7,19.63 C76.6066662,19.7300005 76.4866674,19.78 76.34,19.78 L74.32,19.78 C73.786664,19.78 73.3766681,19.9266652 73.09,20.22 C72.8033319,20.5133348 72.66,20.926664 72.66,21.46 L72.66,26.5 C72.66,26.6466674 72.6100005,26.7666662 72.51,26.86 C72.4099995,26.9533338 72.2866674,27 72.14,27 L69.5,27 Z M80.18,30.8 C80.0599994,30.8 79.9600004,30.7600004 79.88,30.68 C79.7999996,30.6 79.76,30.5000006 79.76,30.38 C79.76,30.2866662 79.7733332,30.2000004 79.8,30.12 L81.38,26.36 L77.54,17.28 C77.4999998,17.1733328 77.48,17.1 77.48,17.06 C77.5066668,16.926666 77.5633329,16.8166671 77.65,16.73 C77.7366671,16.6433329 77.8399994,16.6 77.96,16.6 L80.34,16.6 C80.6200014,16.6 80.8133328,16.7399986 80.92,17.02 L83.14,22.7 L85.42,17.02 C85.553334,16.7399986 85.753332,16.6 86.02,16.6 L88.38,16.6 C88.5000006,16.6 88.6033329,16.6433329 88.69,16.73 C88.7766671,16.8166671 88.82,16.9133328 88.82,17.02 C88.82,17.1133338 88.8066668,17.1999996 88.78,17.28 L83.12,30.38 C82.986666,30.6600014 82.7800014,30.8 82.5,30.8 L80.18,30.8 Z M90.76,30.8 C90.6133326,30.8 90.4900005,30.7533338 90.39,30.66 C90.2899995,30.5666662 90.24,30.4466674 90.24,30.3 L90.24,17.1 C90.24,16.9533326 90.2899995,16.8333338 90.39,16.74 C90.4900005,16.6466662 90.6133326,16.6 90.76,16.6 L93.14,16.6 C93.2866674,16.6 93.4066662,16.6466662 93.5,16.74 C93.5933338,16.8333338 93.64,16.9533326 93.64,17.1 L93.64,17.82 C94.3600036,16.8733286 95.3933266,16.4 96.74,16.4 C98.0333398,16.4 99.0499963,16.8033293 99.79,17.61 C100.48067,18.3628927 100.872252,19.4148533 100.964756,20.7659099 L100.98,21.06 C100.993333,21.2333342 101,21.4799984 101,21.8 L100.9968,22.1520004 C100.994667,22.2586669 100.991467,22.3546665 100.9872,22.4399998 L100.98,22.56 C100.926666,24.0000072 100.52667,25.1333292 99.78,25.96 C99.0333296,26.7866708 98.0200064,27.2 96.74,27.2 C95.4466602,27.2 94.4800032,26.7600044 93.84,25.88 L93.84,30.3 C93.84,30.4466674 93.7933338,30.5666662 93.7,30.66 C93.6066662,30.7533338 93.4866674,30.8 93.34,30.8 L90.76,30.8 Z M95.58,24.42 C96.180003,24.42 96.6099987,24.2433351 96.87,23.89 C97.0975011,23.5808318 97.2407814,23.1670333 97.2998437,22.6485946 L97.32,22.42 C97.3333334,22.286666 97.34,22.0800014 97.34,21.8 L97.3368,21.4991996 C97.3346667,21.4106664 97.3314667,21.3338667 97.3272,21.2688001 L97.32,21.18 C97.2799998,20.5533302 97.1300013,20.0633351 96.87,19.71 C96.6099987,19.3566649 96.180003,19.18 95.58,19.18 C95.0066638,19.18 94.5800014,19.3633315 94.3,19.73 C94.0549988,20.0508349 93.906979,20.4456753 93.8559375,20.9145305 L93.84,21.12 C93.8293333,21.2586674 93.8229333,21.4485325 93.8208,21.6895994 L93.82,21.88 C93.82,22.1360013 93.8242666,22.3450666 93.8328,22.5071998 L93.84,22.62 C93.8666668,23.1400026 94.0233319,23.5699983 94.31,23.91 C94.5966681,24.2500017 95.0199972,24.42 95.58,24.42 Z M117.36,16.4 C118.986675,16.4 120.263329,16.7966627 121.19,17.59 C122.116671,18.3833373 122.62,19.4866596 122.7,20.9 C122.726667,21.2466684 122.74,21.5466654 122.74,21.8 C122.74,21.9900009 122.7325,22.2062495 122.7175,22.4487494 L122.7,22.7 C122.62,24.1400072 122.130005,25.2499961 121.23,26.03 C120.329996,26.8100039 119.040008,27.2 117.36,27.2 C115.679992,27.2 114.390005,26.8100039 113.49,26.03 C112.649996,25.3019964 112.167155,24.2865391 112.041467,22.9836012 L112.02,22.7 C112.012381,22.6009519 112.006939,22.4605445 112.003673,22.2787761 L112.001633,21.4653053 C112.003809,21.2628564 112.008163,21.1017688 112.014694,20.982041 L112.02,20.9 C112.1,19.4866596 112.603329,18.3833373 113.53,17.59 C114.456671,16.7966627 115.733325,16.4 117.36,16.4 Z M107.06,12.8 C107.206667,12.8 107.326666,12.8466662 107.42,12.94 C107.513334,13.0333338 107.56,13.1533326 107.56,13.3 L107.56,16.6 L110.06,16.6 C110.206667,16.6 110.33,16.6466662 110.43,16.74 C110.530001,16.8333338 110.58,16.9533326 110.58,17.1 L110.58,18.82 C110.58,18.9666674 110.530001,19.0866662 110.43,19.18 C110.33,19.2733338 110.206667,19.32 110.06,19.32 L107.56,19.32 L107.56,22.72 C107.56,23.186669 107.646666,23.5399988 107.82,23.78 C107.993334,24.0200012 108.273331,24.14 108.66,24.14 L110.24,24.14 C110.386667,24.14 110.506666,24.1899995 110.6,24.29 C110.693334,24.3900005 110.74,24.5133326 110.74,24.66 L110.74,26.5 C110.74,26.633334 110.693334,26.7499995 110.6,26.85 C110.506666,26.9500005 110.386667,27 110.24,27 L108.34,27 C105.513319,27 104.1,25.6733466 104.1,23.02 L104.1,19.32 L102.52,19.32 C102.386666,19.32 102.270001,19.2700005 102.17,19.17 C102.07,19.0699995 102.02,18.953334 102.02,18.82 L102.02,17.1 C102.02,16.9533326 102.07,16.8333338 102.17,16.74 C102.270001,16.6466662 102.386666,16.6 102.52,16.6 L104.1,16.6 L104.1,13.3 C104.1,13.1533326 104.15,13.0333338 104.25,12.94 C104.350001,12.8466662 104.466666,12.8 104.6,12.8 L107.06,12.8 Z M117.36,18.92 C116.813331,18.92 116.406668,19.0933316 116.14,19.44 C115.873332,19.7866684 115.72,20.3066632 115.68,21 L115.68,21 L115.66,21.8 L115.68,22.6 C115.72,23.3066702 115.873332,23.8299983 116.14,24.17 C116.406668,24.5100017 116.813331,24.68 117.36,24.68 C117.906669,24.68 118.313332,24.5100017 118.58,24.17 C118.846668,23.8299983 119,23.3066702 119.04,22.6 L119.04,22.6 L119.045306,22.5346938 C119.050204,22.4612244 119.053878,22.3632657 119.056327,22.240817 L119.056327,22.240817 L119.06,21.8 C119.06,21.399998 119.053333,21.133334 119.04,21 L119.04,21 L119.022469,20.7753078 C118.964527,20.1932486 118.817038,19.7481497 118.58,19.44 C118.313332,19.0933316 117.906669,18.92 117.36,18.92 Z" id="path-1"></path>
    </defs>
    <g id="Page-1" stroke="none" stroke-width="1" fill="none" fill-rule="evenodd">
        <g id="buycrypto" fill-rule="nonzero">
            <path d="M130.197,40 L4.729,40 C2.122,40 0,37.872 0,35.267 L0,4.726 C0,2.12 2.122,0 4.729,0 L130.197,0 C132.803,0 135,2.12 135,4.726 L135,35.267 C135,37.872 132.803,40 130.197,40 L130.197,40 Z" id="Path" fill="#A6A6A6"></path>
            <path d="M134.032,35.268 C134.032,37.384 132.318,39.098 130.198,39.098 L4.729,39.098 C2.61,39.098 0.89,37.384 0.89,35.268 L0.89,4.725 C0.89,2.61 2.61,0.89 4.729,0.89 L130.197,0.89 C132.318,0.89 134.032,2.61 134.032,4.725 L134.032,35.268 L134.032,35.268 Z" id="Path" fill="#FFFFFF"></path>
            <g id="BuyCrypto" fill="#000000">
                <use xlink:href="#path-1"></use>
                <use xlink:href="#path-1"></use>
            </g>
        </g>
    </g>
</svg>