<?xml version="1.0" encoding="UTF-8"?>
<svg width="184px" height="60px" viewBox="0 0 184 60" version="1.1" xmlns="http://www.w3.org/2000/svg" xmlns:xlink="http://www.w3.org/1999/xlink">
    <!-- Generator: Sketch 60 (88103) - https://sketch.com -->
    <title>bZx_logo</title>
    <desc>Created with Sketch.</desc>
    <defs>
        <linearGradient x1="93.4999925%" y1="93.3111024%" x2="13.6740467%" y2="13.4850899%" id="linearGradient-1">
            <stop stop-color="#003CDA" offset="15.9375%"></stop>
            <stop stop-color="#33DFCC" offset="100%"></stop>
        </linearGradient>
    </defs>
    <g id="Branding" stroke="none" stroke-width="1" fill="none" fill-rule="evenodd">
        <g id="bZx_logo" fill-rule="nonzero">
            <path d="M0,12 C0,5.3726 5.3843,0 12.0261,0 L48.1046,0 C54.7464,0 60.1307,5.3726 60.1307,12 L60.1307,48 C60.1307,54.6274 54.7464,60 48.1046,60 L12.0261,60 C5.3843,60 0,54.6274 0,48 L0,12 Z" id="Path" fill="url(#linearGradient-1)"></path>
            <polygon id="Path" fill="#FFFFFF" points="24.0825 0 18.053 0 18.053 13.8352 24.0825 13.8352"></polygon>
            <path d="M34.2036,42.516 L26.236,42.516 C21.7138,42.516 18.053,38.8555 18.053,34.3338 L18.053,28.5201 L24.0826,28.5201 L24.0826,34.2907 C24.0826,35.4965 25.0301,36.4439 26.236,36.4439 L34.2036,36.4439 C35.4095,36.4439 36.357,35.4965 36.357,34.2907 L36.357,26.3669 C36.357,25.1611 35.4095,24.2137 34.2036,24.2137 L0,24.2137 L0,18.1847 L34.2036,18.1847 C38.7258,18.1847 42.3866,21.8451 42.3866,26.3669 L42.3866,34.3338 C42.3866,38.8555 38.7258,42.516 34.2036,42.516 Z" id="Path" fill="#FFFFFF"></path>
            <path d="M154.775,48.2185 C154.517,47.9638 154.414,47.7091 154.414,47.3526 C154.414,46.9961 154.517,46.6904 154.775,46.3848 L164.483,33.6 L155.498,21.5791 C155.292,21.2735 155.137,20.9679 155.137,20.6114 C155.137,20.2548 155.24,20.0001 155.498,19.7455 C155.757,19.4908 156.015,19.3889 156.376,19.3889 L161.385,19.3889 C161.798,19.3889 162.107,19.4908 162.314,19.6436 C162.521,19.7964 162.727,20.0511 162.985,20.3567 L169.336,28.7101 L175.635,20.3567 C175.687,20.3058 175.79,20.1529 176.048,19.8473 C176.307,19.5417 176.668,19.3889 177.236,19.3889 L182.09,19.3889 C182.451,19.3889 182.709,19.4908 182.967,19.7455 C183.174,20.0001 183.329,20.2548 183.329,20.5604 C183.329,20.917 183.225,21.2735 182.967,21.5791 L173.88,33.6509 L183.639,46.3848 C183.845,46.6904 184,46.9961 184,47.3526 C184,47.7091 183.897,47.9638 183.639,48.2185 C183.38,48.4732 183.122,48.5751 182.761,48.5751 L177.546,48.5751 C176.926,48.5751 176.41,48.2694 175.997,47.6582 L169.181,38.7954 L162.314,47.6582 C161.901,48.2694 161.385,48.5751 160.765,48.5751 L155.705,48.5751 C155.292,48.5751 154.982,48.4732 154.775,48.2185 Z" id="Path" fill="#FFFFFF"></path>
            <path d="M113.345,31.9692 C113.241,27.955 111.988,24.801 109.9,22.3307 C107.813,19.8605 104.838,18.6253 100.976,18.6253 C97.27,18.6253 94.348,19.8605 92.208,22.3822 L92.208,9.7737 C92.208,8.9502 91.373,8.4356 90.642,8.7444 L84.484,11.2661 L84.484,47.3419 C84.484,47.7021 84.64,48.0624 84.901,48.3197 C85.162,48.577 85.475,48.7314 85.893,48.7314 L90.486,48.7314 C90.903,48.7314 91.268,48.577 91.529,48.3197 C91.79,48.0624 91.947,47.7536 91.947,47.3419 L91.947,45.2319 C94.035,47.908 97.114,49.246 101.08,49.246 C104.942,49.246 107.917,48.0109 110.005,45.5921 C112.092,43.1734 113.188,39.8797 113.345,35.8141 C113.475,34.5324 113.345,33.2395 113.345,31.9692 Z M105.308,35.6083 C105.047,40.6002 102.855,43.0704 98.784,43.0704 C96.592,43.0704 94.974,42.35 93.878,40.9604 C92.782,39.5709 92.208,37.8726 92.156,35.8656 C92.103,35.4024 92.103,34.6819 92.103,33.7041 C92.103,32.6748 92.103,31.9544 92.156,31.4912 C92.208,29.587 92.834,27.9917 93.93,26.6536 C95.026,25.3156 96.644,24.6466 98.732,24.6466 C102.855,24.6466 104.995,27.1168 105.255,32.1087 C105.308,32.469 105.308,33.0351 105.308,33.807 C105.36,34.6819 105.36,35.248 105.308,35.6083 Z" id="Shape" fill="#FFFFFF"></path>
            <path d="M149.01,42.0785 L128.576,42.0785 L134.093,34.7327 C134.809,33.808 134.145,32.4724 132.97,32.4724 L125.818,32.4724 L118.972,41.3593 C118.768,41.6675 118.564,41.9757 118.359,42.2839 C118.206,42.5922 118.104,43.0031 118.104,43.4654 L118.104,47.4722 C118.104,47.8832 118.206,48.2428 118.462,48.4996 C118.717,48.7565 119.024,48.9106 119.432,48.9106 L145.639,48.9106 C146.354,48.9106 147.018,48.551 147.427,47.9859 L150.083,44.3901 C150.798,43.3627 150.134,42.0785 149.01,42.0785 Z" id="Path" fill="#FFFFFF"></path>
            <path d="M118.479,15.3465 L139.126,15.3465 L133.551,22.5424 C132.828,23.4482 133.499,24.7565 134.687,24.7565 L141.913,24.7565 L148.83,16.051 C149.036,15.7491 149.243,15.4471 149.449,15.1452 C149.604,14.8433 149.707,14.4407 149.707,13.9878 L149.707,10.0628 C149.707,9.6602 149.604,9.308 149.346,9.0564 C149.088,8.8048 148.778,8.6538 148.365,8.6538 L121.886,8.6538 C121.163,8.6538 120.492,9.0061 120.079,9.5596 L117.395,13.0821 C116.672,14.0382 117.343,15.3465 118.479,15.3465 Z" id="Path" fill="#FFFFFF"></path>
        </g>
    </g>
</svg>