<?xml version="1.0" encoding="UTF-8"?>
<svg width="330px" height="301px" viewBox="0 0 330 301" version="1.1" xmlns="http://www.w3.org/2000/svg" xmlns:xlink="http://www.w3.org/1999/xlink">
    <!-- Generator: Sketch 54 (76480) - https://sketchapp.com -->
    <title>compound</title>
    <desc>Created with Sketch.</desc>
    <g id="Page-1" stroke="none" stroke-width="1" fill="none" fill-rule="evenodd">
        <g id="compound">
            <path d="M0.875,294.53 C3.269,288.013 3.312,281.081 4.37,274.335 C6.236,262.441 7.861,250.508 9.536,238.585 C11.057,227.758 12.47,216.917 14.005,206.092 C15.355,196.567 16.825,187.058 18.206,177.537 C18.639,174.552 19.007,171.554 19.316,168.553 C19.801,163.824 22.798,160.695 27.455,160.682 C51.931,160.616 76.407,160.612 100.883,160.679 C106.422,160.694 109.875,164.567 109.101,170.1 C107.685,180.221 105.858,190.286 104.368,200.397 C103.011,209.609 101.993,218.872 100.607,228.079 C98.915,239.314 97.699,250.61 95.632,261.803 C93.913,271.111 93.029,280.578 91.944,289.993 C91.613,292.861 90.564,295.626 90.844,298.587 C90.973,299.95 90.185,300.761 88.723,300.738 C88.286,300.732 87.849,300.759 87.412,300.758 C58.567,300.724 29.722,300.688 0.876,300.653 C0.875,298.611 0.875,296.57 0.875,294.53 Z" id="Path" fill="#4EE0CE"></path>
            <path d="M245.657,0.708 C271.622,0.705 297.588,0.701 323.554,0.698 C328.648,3.125 329.798,5.684 329.078,10.957 C327.373,23.436 325.959,35.952 324.341,48.442 C322.816,60.213 321.157,71.966 319.594,83.733 C317.954,96.074 316.361,108.421 314.743,120.763 C312.898,134.829 311.07,148.898 309.194,162.959 C307.586,175.011 305.911,187.053 304.283,199.101 C301.996,216.026 299.693,232.948 297.459,249.878 C295.602,263.942 293.695,278.004 292.078,292.098 C291.095,300.66 291.323,300.687 282.845,300.687 C257.066,300.687 231.287,300.631 205.509,300.749 C201.799,300.767 200.873,299.991 201.511,296.025 C203.443,284.025 204.762,271.927 206.374,259.875 C208.599,243.235 210.915,226.607 213.113,209.965 C215.008,195.611 216.737,181.236 218.639,166.885 C220.522,152.682 222.583,138.502 224.47,124.299 C226.09,112.101 227.533,99.879 229.127,87.677 C230.665,75.907 232.318,64.153 233.881,52.388 C235.521,40.048 237.108,27.701 238.731,15.359 C239.089,12.632 239.35,9.879 239.934,7.199 C240.618,4.055 242.355,1.641 245.657,0.708 Z" id="Path" fill="#B0EEE6"></path>
            <path d="M145.848,300.722 C132.297,300.722 118.745,300.638 105.197,300.785 C102.097,300.818 100.979,299.861 101.401,296.802 C102.429,289.338 103.418,281.867 104.306,274.386 C105.857,261.327 107.982,248.349 109.424,235.269 C110.848,222.341 113.179,209.515 114.976,196.625 C116.411,186.327 117.598,175.995 118.977,165.689 C120.223,156.382 121.774,147.113 122.839,137.788 C124.269,125.267 126.84,112.902 127.737,100.309 C128.054,95.861 128.771,91.416 129.657,87.042 C130.528,82.745 133.686,80.343 138.153,80.335 C162.341,80.294 186.528,80.278 210.715,80.341 C216.98,80.357 220.24,84.802 219.126,91.246 C216.932,103.935 215.283,116.719 213.576,129.466 C211.713,143.376 209.914,157.307 208.116,171.233 C205.895,188.434 203.481,205.61 201.157,222.798 C199.102,237.996 197.127,253.206 194.981,268.393 C193.626,277.981 192.523,287.6 190.826,297.151 C190.246,300.415 189.168,300.775 186.5,300.759 C172.949,300.679 159.398,300.722 145.848,300.722 Z" id="Path" fill="#84E8DB"></path>
        </g>
    </g>
</svg>