<?xml version="1.0" encoding="UTF-8"?>
<svg width="200px" height="30px" viewBox="0 0 200 30" version="1.1" xmlns="http://www.w3.org/2000/svg" xmlns:xlink="http://www.w3.org/1999/xlink">
    <!-- Generator: Sketch 53.2 (72643) - https://sketchapp.com -->
    <title>Dexwallet</title>
    <desc>Created with Sketch.</desc>
    <g id="Page-1" stroke="none" stroke-width="1" fill="none" fill-rule="evenodd">
        <g id="Group-19" transform="translate(-50.000000, 0.000000)" fill="#FFFFFF" fill-rule="nonzero">
            <path d="M51.0416667,29.5833333 C50.7638875,29.5833333 50.5208344,29.4791677 50.3125,29.2708333 C50.1041656,29.062499 50,28.8194458 50,28.5416667 L50,1.5 C50,1.19444292 50.0972212,0.937501042 50.2916667,0.729166667 C50.4861121,0.520832292 50.7361096,0.416666667 51.0416667,0.416666667 L62,0.416666667 C66.1111317,0.416666667 69.3055442,1.39582354 71.5833333,3.35416667 C73.8611225,5.31250979 75.055555,8.12498167 75.1666667,11.7916667 C75.1944446,12.5972263 75.2083333,13.66666 75.2083333,15 C75.2083333,16.33334 75.1944446,17.388885 75.1666667,18.1666667 C74.8888875,25.7778158 70.5694862,29.5833333 62.2083333,29.5833333 L51.0416667,29.5833333 Z M62,23.3333333 C63.7500087,23.3333333 65.0416625,22.9166708 65.875,22.0833333 C66.7083375,21.2499958 67.1527775,19.9166758 67.2083333,18.0833333 C67.2638892,17.2777737 67.2916667,16.2361175 67.2916667,14.9583333 C67.2916667,13.6805492 67.2638892,12.6527817 67.2083333,11.875 C67.1527775,10.0972133 66.6736156,8.78472646 65.7708333,7.9375 C64.868051,7.09027354 63.5416754,6.66666667 61.7916667,6.66666667 L57.8333333,6.66666667 L57.8333333,23.3333333 L62,23.3333333 Z M89.3194444,30 C85.9305386,30 83.2638986,29.0902869 81.3194444,27.2708333 C79.3749903,25.4513798 78.3750003,22.8055729 78.3194444,19.3333333 L78.3194444,18.0416667 C78.4305561,14.7360946 79.4583236,12.1527871 81.4027778,10.2916667 C83.3472319,8.43054625 85.9722057,7.5 89.2777778,7.5 C91.6666786,7.5 93.6874917,7.97916187 95.3402778,8.9375 C96.9930638,9.89583812 98.2291626,11.2152694 99.0486111,12.8958333 C99.8680597,14.5763973 100.277778,16.4861004 100.277778,18.625 L100.277778,19.6666667 C100.277778,19.9722237 100.173612,20.2291656 99.9652778,20.4375 C99.7569434,20.6458344 99.5000015,20.75 99.1944444,20.75 L85.9861111,20.75 L85.9861111,21 C86.013889,22.2500062 86.3055528,23.2569406 86.8611111,24.0208333 C87.4166694,24.784726 88.2083282,25.1666667 89.2361111,25.1666667 C89.9027811,25.1666667 90.437498,25.0347235 90.8402778,24.7708333 C91.2430576,24.5069431 91.6249982,24.1666687 91.9861111,23.75 C92.2361124,23.4722208 92.4374992,23.2986115 92.5902778,23.2291667 C92.7430563,23.1597219 92.9861094,23.125 93.3194444,23.125 L98.7777778,23.125 C99.027779,23.125 99.2430547,23.2013881 99.4236111,23.3541667 C99.6041676,23.5069452 99.6944444,23.6944433 99.6944444,23.9166667 C99.6944444,24.6388925 99.2847263,25.4861062 98.4652778,26.4583333 C97.6458292,27.4305604 96.4513967,28.2638854 94.8819444,28.9583333 C93.3124922,29.6527812 91.458344,30 89.3194444,30 Z M92.6111111,16.5 L92.6111111,16.4166667 C92.6111111,15.0833267 92.3194474,14.0486148 91.7361111,13.3125 C91.1527749,12.5763852 90.3333386,12.2083333 89.2777778,12.2083333 C88.2222169,12.2083333 87.4097251,12.5763852 86.8402778,13.3125 C86.2708305,14.0486148 85.9861111,15.0833267 85.9861111,16.4166667 L85.9861111,16.5 L92.6111111,16.5 Z M102.097222,29.5833333 C101.847221,29.5833333 101.625001,29.4930565 101.430556,29.3125 C101.23611,29.1319435 101.138889,28.9027792 101.138889,28.625 C101.138889,28.4027767 101.222221,28.1944454 101.388889,28 L108.305556,18.4583333 L102.013889,9.5 C101.847221,9.27777667 101.763889,9.06944542 101.763889,8.875 C101.763889,8.59722083 101.86111,8.36805646 102.055556,8.1875 C102.250001,8.00694354 102.472221,7.91666667 102.722222,7.91666667 L108.097222,7.91666667 C108.430557,7.91666667 108.680555,7.98611042 108.847222,8.125 C109.01389,8.26388958 109.180555,8.44444333 109.347222,8.66666667 L113.013889,13.7916667 L116.722222,8.66666667 C116.75,8.63888875 116.819444,8.55555625 116.930556,8.41666667 C117.041667,8.27777708 117.187499,8.15972271 117.368056,8.0625 C117.548612,7.96527729 117.749999,7.91666667 117.972222,7.91666667 L123.097222,7.91666667 C123.347223,7.91666667 123.569443,8.00694354 123.763889,8.1875 C123.958334,8.36805646 124.055556,8.58333208 124.055556,8.83333333 C124.055556,9.05555667 123.972223,9.27777667 123.805556,9.5 L117.388889,18.4583333 L124.430556,28 C124.569445,28.1944454 124.638889,28.4027767 124.638889,28.625 C124.638889,28.9027792 124.548612,29.1319435 124.368056,29.3125 C124.187499,29.4930565 123.958335,29.5833333 123.680556,29.5833333 L118.055556,29.5833333 C117.583331,29.5833333 117.194446,29.3611133 116.888889,28.9166667 L112.847222,23.4166667 L108.763889,28.9166667 C108.597221,29.13889 108.430556,29.305555 108.263889,29.4166667 C108.097221,29.5277783 107.861113,29.5833333 107.555556,29.5833333 L102.097222,29.5833333 Z M133.375,29.5833333 C132.986109,29.5833333 132.687501,29.4930565 132.479167,29.3125 C132.270832,29.1319435 132.111112,28.8750017 132,28.5416667 L126,9.25 L125.916667,8.875 C125.916667,8.59722083 126.013888,8.36805646 126.208333,8.1875 C126.402779,8.00694354 126.624999,7.91666667 126.875,7.91666667 L131.416667,7.91666667 C131.750002,7.91666667 132.027777,8.00694354 132.25,8.1875 C132.472223,8.36805646 132.611111,8.56944333 132.666667,8.79166667 L136.083333,20.3333333 L139.708333,8.875 C139.763889,8.62499875 139.902777,8.40277875 140.125,8.20833333 C140.347223,8.01388792 140.638887,7.91666667 141,7.91666667 L143.875,7.91666667 C144.236113,7.91666667 144.527777,8.01388792 144.75,8.20833333 C144.972223,8.40277875 145.125,8.62499875 145.208333,8.875 L148.833333,20.3333333 L152.208333,8.79166667 C152.291667,8.56944333 152.437499,8.36805646 152.645833,8.1875 C152.854168,8.00694354 153.124998,7.91666667 153.458333,7.91666667 L158,7.91666667 C158.277779,7.91666667 158.506944,8.00694354 158.6875,8.1875 C158.868056,8.36805646 158.958333,8.59722083 158.958333,8.875 C158.958333,9.01388958 158.944445,9.13888833 158.916667,9.25 L152.875,28.5416667 C152.680555,29.2361146 152.236115,29.5833333 151.541667,29.5833333 L147.583333,29.5833333 C146.888885,29.5833333 146.416668,29.2361146 146.166667,28.5416667 L142.458333,17.4583333 L138.708333,28.5416667 C138.513888,29.2361146 138.055559,29.5833333 137.333333,29.5833333 L133.375,29.5833333 Z M167.777778,30 C166.305548,30 164.965284,29.7152806 163.756944,29.1458333 C162.548605,28.576386 161.60417,27.7916717 160.923611,26.7916667 C160.243052,25.7916617 159.902778,24.6944504 159.902778,23.5 C159.902778,21.6111017 160.687492,20.0763948 162.256944,18.8958333 C163.826397,17.7152719 165.986097,16.90278 168.736111,16.4583333 L173.902778,15.6666667 L173.902778,15.1666667 C173.902778,14.1388837 173.694447,13.3888912 173.277778,12.9166667 C172.861109,12.4444421 172.152783,12.2083333 171.152778,12.2083333 C170.597219,12.2083333 170.131946,12.3055546 169.756944,12.5 C169.381943,12.6944454 168.958336,12.9861092 168.486111,13.375 C168.124998,13.6805571 167.805557,13.9027771 167.527778,14.0416667 C167.416666,14.2361121 167.277779,14.3333333 167.111111,14.3333333 L162.277778,14.3333333 C161.999999,14.3333333 161.770834,14.2430565 161.590278,14.0625 C161.409721,13.8819435 161.333333,13.6666679 161.361111,13.4166667 C161.388889,12.6666629 161.763885,11.8263935 162.486111,10.8958333 C163.208337,9.96527312 164.305548,9.16667 165.777778,8.5 C167.250007,7.83333 169.069434,7.5 171.236111,7.5 C174.680573,7.5 177.236103,8.25693688 178.902778,9.77083333 C180.569453,11.2847298 181.402778,13.3333204 181.402778,15.9166667 L181.402778,28.5416667 C181.402778,28.8194458 181.305557,29.062499 181.111111,29.2708333 C180.916666,29.4791677 180.666668,29.5833333 180.361111,29.5833333 L175.236111,29.5833333 C174.958332,29.5833333 174.715279,29.4791677 174.506944,29.2708333 C174.29861,29.062499 174.194444,28.8194458 174.194444,28.5416667 L174.194444,27.0833333 C173.58333,27.9444487 172.736117,28.6458306 171.652778,29.1875 C170.569439,29.7291694 169.277785,30 167.777778,30 Z M169.861111,25.0833333 C171.083339,25.0833333 172.076385,24.6805596 172.840278,23.875 C173.60417,23.0694404 173.986111,21.9027854 173.986111,20.375 L173.986111,19.875 L170.527778,20.4583333 C168.194433,20.90278 167.027778,21.736105 167.027778,22.9583333 C167.027778,23.5972254 167.298608,24.1111092 167.840278,24.5 C168.381947,24.8888908 169.055552,25.0833333 169.861111,25.0833333 Z M186.680556,29.5833333 C186.374998,29.5833333 186.118057,29.4861121 185.909722,29.2916667 C185.701388,29.0972212 185.597222,28.8472237 185.597222,28.5416667 L185.597222,1.04166667 C185.597222,0.736109583 185.701388,0.486112083 185.909722,0.291666667 C186.118057,0.09722125 186.374998,1.77635684e-15 186.680556,1.77635684e-15 L191.888889,1.77635684e-15 C192.194446,1.77635684e-15 192.444443,0.09722125 192.638889,0.291666667 C192.833334,0.486112083 192.930556,0.736109583 192.930556,1.04166667 L192.930556,28.5416667 C192.930556,28.8194458 192.833334,29.062499 192.638889,29.2708333 C192.444443,29.4791677 192.194446,29.5833333 191.888889,29.5833333 L186.680556,29.5833333 Z M198.416667,29.5833333 C198.11111,29.5833333 197.854168,29.4861121 197.645833,29.2916667 C197.437499,29.0972212 197.333333,28.8472237 197.333333,28.5416667 L197.333333,1.04166667 C197.333333,0.736109583 197.437499,0.486112083 197.645833,0.291666667 C197.854168,0.09722125 198.11111,1.77635684e-15 198.416667,1.77635684e-15 L203.625,1.77635684e-15 C203.930557,1.77635684e-15 204.180555,0.09722125 204.375,0.291666667 C204.569445,0.486112083 204.666667,0.736109583 204.666667,1.04166667 L204.666667,28.5416667 C204.666667,28.8194458 204.569445,29.062499 204.375,29.2708333 C204.180555,29.4791677 203.930557,29.5833333 203.625,29.5833333 L198.416667,29.5833333 Z M219.236111,30 C215.847205,30 213.180565,29.0902869 211.236111,27.2708333 C209.291657,25.4513798 208.291667,22.8055729 208.236111,19.3333333 L208.236111,18.0416667 C208.347223,14.7360946 209.37499,12.1527871 211.319444,10.2916667 C213.263899,8.43054625 215.888872,7.5 219.194444,7.5 C221.583345,7.5 223.604158,7.97916187 225.256944,8.9375 C226.90973,9.89583812 228.145829,11.2152694 228.965278,12.8958333 C229.784726,14.5763973 230.194444,16.4861004 230.194444,18.625 L230.194444,19.6666667 C230.194444,19.9722237 230.090279,20.2291656 229.881944,20.4375 C229.67361,20.6458344 229.416668,20.75 229.111111,20.75 L215.902778,20.75 L215.902778,21 C215.930556,22.2500062 216.222219,23.2569406 216.777778,24.0208333 C217.333336,24.784726 218.124995,25.1666667 219.152778,25.1666667 C219.819448,25.1666667 220.354165,25.0347235 220.756944,24.7708333 C221.159724,24.5069431 221.541665,24.1666687 221.902778,23.75 C222.152779,23.4722208 222.354166,23.2986115 222.506944,23.2291667 C222.659723,23.1597219 222.902776,23.125 223.236111,23.125 L228.694444,23.125 C228.944446,23.125 229.159721,23.2013881 229.340278,23.3541667 C229.520834,23.5069452 229.611111,23.6944433 229.611111,23.9166667 C229.611111,24.6388925 229.201393,25.4861062 228.381944,26.4583333 C227.562496,27.4305604 226.368063,28.2638854 224.798611,28.9583333 C223.229159,29.6527812 221.375011,30 219.236111,30 Z M222.527778,16.5 L222.527778,16.4166667 C222.527778,15.0833267 222.236114,14.0486148 221.652778,13.3125 C221.069442,12.5763852 220.250005,12.2083333 219.194444,12.2083333 C218.138884,12.2083333 217.326392,12.5763852 216.756944,13.3125 C216.187497,14.0486148 215.902778,15.0833267 215.902778,16.4166667 L215.902778,16.5 L222.527778,16.5 Z M244.930556,29.5833333 C239.041637,29.5833333 236.097222,26.8194721 236.097222,21.2916667 L236.097222,13.5833333 L232.805556,13.5833333 C232.527776,13.5833333 232.284723,13.4791677 232.076389,13.2708333 C231.868055,13.062499 231.763889,12.8194458 231.763889,12.5416667 L231.763889,8.95833333 C231.763889,8.65277625 231.868055,8.40277875 232.076389,8.20833333 C232.284723,8.01388792 232.527776,7.91666667 232.805556,7.91666667 L236.097222,7.91666667 L236.097222,1.04166667 C236.097222,0.736109583 236.201388,0.486112083 236.409722,0.291666667 C236.618057,0.09722125 236.86111,1.77635684e-15 237.138889,1.77635684e-15 L242.263889,1.77635684e-15 C242.569446,1.77635684e-15 242.819443,0.09722125 243.013889,0.291666667 C243.208334,0.486112083 243.305556,0.736109583 243.305556,1.04166667 L243.305556,7.91666667 L248.513889,7.91666667 C248.819446,7.91666667 249.076388,8.01388792 249.284722,8.20833333 C249.493057,8.40277875 249.597222,8.65277625 249.597222,8.95833333 L249.597222,12.5416667 C249.597222,12.8472238 249.493057,13.0972213 249.284722,13.2916667 C249.076388,13.4861121 248.819446,13.5833333 248.513889,13.5833333 L243.305556,13.5833333 L243.305556,20.6666667 C243.305556,21.6388937 243.486109,22.3749975 243.847222,22.875 C244.208335,23.3750025 244.791663,23.625 245.597222,23.625 L248.888889,23.625 C249.194446,23.625 249.444443,23.7291656 249.638889,23.9375 C249.833334,24.1458344 249.930556,24.4027763 249.930556,24.7083333 L249.930556,28.5416667 C249.930556,28.8194458 249.833334,29.062499 249.638889,29.2708333 C249.444443,29.4791677 249.194446,29.5833333 248.888889,29.5833333 L244.930556,29.5833333 Z" id="Dexwallet"></path>
        </g>
    </g>
</svg>