<?xml version="1.0" encoding="UTF-8"?>
<svg width="135px" height="40px" viewBox="0 0 135 40" version="1.1" xmlns="http://www.w3.org/2000/svg" xmlns:xlink="http://www.w3.org/1999/xlink">
    <!-- Generator: Sketch 59.1 (86144) - https://sketch.com -->
    <title>appStore</title>
    <desc>Created with Sketch.</desc>
    <g id="Page-1" stroke="none" stroke-width="1" fill="none" fill-rule="evenodd">
        <g id="appStore" fill-rule="nonzero">
            <path d="M130.197,40 L4.729,40 C2.122,40 0,37.872 0,35.267 L0,4.726 C0,2.12 2.122,0 4.729,0 L130.197,0 C132.803,0 135,2.12 135,4.726 L135,35.267 C135,37.872 132.803,40 130.197,40 L130.197,40 Z" id="Path" fill="#A6A6A6"></path>
            <path d="M134.032,35.268 C134.032,37.384 132.318,39.098 130.198,39.098 L4.729,39.098 C2.61,39.098 0.89,37.384 0.89,35.268 L0.89,4.725 C0.89,2.61 2.61,0.89 4.729,0.89 L130.197,0.89 C132.318,0.89 134.032,2.61 134.032,4.725 L134.032,35.268 L134.032,35.268 Z" id="Path" fill="#7289DA"></path>
            <g id="Discord-Logo+Wordmark-White" transform="translate(15.000000, 7.000000)" fill="#FFFFFF">
                <path d="M14.7073217,12.1165049 C13.898135,12.1165049 13.2593035,12.7911739 13.2593035,13.631068 C13.2593035,14.470962 13.9123313,15.1456311 14.7073217,15.1456311 C15.5165083,15.1456311 16.1553398,14.470962 16.1553398,13.631068 C16.1553398,12.7911739 15.502312,12.1165049 14.7073217,12.1165049 Z M9.52568806,12.1165049 C8.71650144,12.1165049 8.0776699,12.7911739 8.0776699,13.631068 C8.0776699,14.470962 8.7306977,15.1456311 9.52568806,15.1456311 C10.3348747,15.1456311 10.9737062,14.470962 10.9737062,13.631068 C10.9879025,12.7911739 10.3348747,12.1165049 9.52568806,12.1165049 Z" id="Shape"></path>
                <path d="M22.1444322,0 L2.93825799,0 C1.31863286,0 0,1.31165391 0,2.92270709 L0,22.0272315 C0,23.6382846 1.31863286,24.9499386 2.93825799,24.9499386 L19.1918412,24.9499386 L18.432194,22.3408878 L20.2668137,24.0232266 L22.0011025,25.6057655 L25.0970232,28.2718447 L25.0970232,2.92270709 C25.0826902,1.31165391 23.7640573,0 22.1444322,0 Z M16.6119074,18.4629545 C16.6119074,18.4629545 16.0959206,17.8498989 15.6659316,17.3223859 C17.5435502,16.7948729 18.2601985,15.6400472 18.2601985,15.6400472 C17.6725469,16.0249891 17.1135612,16.2958742 16.6119074,16.4812166 C15.8952591,16.7806158 15.2072767,16.9659582 14.5336273,17.0942722 C13.1576626,17.3509001 11.8963616,17.2796146 10.8213892,17.0800151 C10.0044101,16.9231869 9.30209482,16.7093303 8.71444322,16.4669594 C8.38478501,16.3386455 8.02646086,16.1818173 7.66813671,15.9822178 C7.62513782,15.9537036 7.58213892,15.9394465 7.53914002,15.9109322 C7.51047409,15.8966751 7.49614112,15.882418 7.48180816,15.882418 C7.22381477,15.739847 7.08048512,15.6400472 7.08048512,15.6400472 C7.08048512,15.6400472 7.76846748,16.7663587 9.58875413,17.3081288 C9.15876516,17.8498989 8.62844542,18.4772116 8.62844542,18.4772116 C5.46085998,18.3774119 4.25689085,16.3243884 4.25689085,16.3243884 C4.25689085,11.776371 6.32083793,8.08378009 6.32083793,8.08378009 C8.38478501,6.55826956 10.3340684,6.60104089 10.3340684,6.60104089 L10.477398,6.77212618 C7.89746417,7.49923867 6.72216097,8.62555019 6.72216097,8.62555019 C6.72216097,8.62555019 7.03748622,8.45446489 7.56780595,8.22635117 C9.1014333,7.55626711 10.3197354,7.38518181 10.8213892,7.32815338 C10.907387,7.31389627 10.9790518,7.29963917 11.0650496,7.29963917 C11.9393605,7.1855823 12.9283352,7.15706809 13.9603087,7.27112495 C15.3219405,7.42795314 16.783903,7.82715215 18.2745314,8.62555019 C18.2745314,8.62555019 17.1422271,7.55626711 14.7056229,6.82915461 L14.9062845,6.60104089 C14.9062845,6.60104089 16.8699008,6.55826956 18.9195149,8.08378009 C18.9195149,8.08378009 20.983462,11.776371 20.983462,16.3243884 C20.983462,16.3101313 19.7794928,18.3631548 16.6119074,18.4629545 L16.6119074,18.4629545 Z M38.2546858,6.10204212 L33.4961411,6.10204212 L33.4961411,11.4199433 L36.6637266,14.2571077 L36.6637266,9.09603474 L38.3550165,9.09603474 C39.429989,9.09603474 39.9603087,9.60929062 39.9603087,10.4362029 L39.9603087,14.3854217 C39.9603087,15.212334 39.4586549,15.7683612 38.3550165,15.7683612 L33.4818082,15.7683612 L33.4818082,18.7767296 L38.2403528,18.7767296 C40.7916207,18.790868 43.1852901,17.5219854 43.1852901,14.6135354 L43.1852901,10.3649173 C43.199559,7.39943892 40.8059537,6.10204212 38.2546858,6.10204212 L38.2546858,6.10204212 Z M63.1940463,14.6135354 L63.1940463,10.2508605 C63.1940463,8.68257862 66.0319735,8.32615092 66.8919515,9.89443278 L69.5148842,8.8394068 C68.4829107,6.58678378 66.6052922,5.93095682 65.0429989,5.93095682 C62.491731,5.93095682 59.969129,7.39943892 59.969129,10.2508605 L59.969129,14.6135354 C59.969129,17.4934712 62.491731,18.9334391 64.985667,18.9334391 C66.5909592,18.9334391 68.5115766,18.1492982 69.5722161,16.0962746 L66.7629548,14.8131349 C66.0749724,16.5667592 63.1940463,16.139046 63.1940463,14.6135354 Z M54.522602,10.849659 C53.5336273,10.6358024 52.8743109,10.2793747 52.831312,9.66631905 C52.8886439,8.19783695 55.1675854,8.14080852 56.5005513,9.55226219 L58.6074972,7.94120901 C57.2888644,6.34441295 55.7982359,5.91669971 54.2646086,5.91669971 C51.9283352,5.91669971 49.6637266,7.22835363 49.6637266,9.70909037 C49.6637266,12.1185416 51.5270121,13.4159384 53.5766262,13.7295948 C54.6229327,13.8721658 55.783903,14.285622 55.755237,14.9984773 C55.6692393,16.3529026 52.8599779,16.281617 51.584344,14.7418494 L49.5490628,16.6380447 C50.738699,18.1635553 52.3583241,18.9334391 53.8776185,18.9334391 C56.213892,18.9334391 58.8081588,17.593271 58.9084895,15.1410484 C59.0518192,12.047256 56.7872106,11.2631151 54.522602,10.849659 Z M44.9195149,18.7623538 L48.1300992,18.7623538 L48.1300992,6.10204212 L44.9195149,6.10204212 L44.9195149,18.7623538 Z M99.0551268,6.10204212 L94.2965821,6.10204212 L94.2965821,11.4199433 L97.4641676,14.2571077 L97.4641676,9.09603474 L99.1554576,9.09603474 C100.23043,9.09603474 100.76075,9.60929062 100.76075,10.4362029 L100.76075,14.3854217 C100.76075,15.212334 100.259096,15.7683612 99.1554576,15.7683612 L94.2822492,15.7683612 L94.2822492,18.7767296 L99.0551268,18.7767296 C101.606395,18.790868 104,17.5219854 104,14.6135354 L104,10.3649173 C104,7.39943892 101.606395,6.10204212 99.0551268,6.10204212 Z M75.7067255,5.93095682 C73.0694598,5.93095682 70.446527,7.3566676 70.446527,10.2793747 L70.446527,14.5992783 C70.446527,17.4934712 73.0837927,18.9476962 75.7353914,18.9476962 C78.3726571,18.9476962 80.9955899,17.4934712 80.9955899,14.5992783 L80.9955899,10.2793747 C80.9955899,7.3709247 78.3439912,5.93095682 75.7067255,5.93095682 Z M77.7706725,14.5992783 C77.7706725,15.5117332 76.738699,15.9822178 75.7210584,15.9822178 C74.6890849,15.9822178 73.6571114,15.5402474 73.6571114,14.5992783 L73.6571114,10.2793747 C73.6571114,9.35266268 74.660419,8.85366391 75.6637266,8.85366391 C76.7100331,8.85366391 77.7706725,9.29563425 77.7706725,10.2793747 L77.7706725,14.5992783 L77.7706725,14.5992783 Z M92.5192944,10.2793747 C92.4476295,7.31389627 90.4123484,6.11629922 87.7894157,6.11629922 L82.7012128,6.11629922 L82.7012128,18.7766109 L85.954796,18.7766109 L85.954796,14.7561065 L86.5281147,14.7561065 L89.4807056,18.7766109 L93.4939361,18.7766109 L90.0253583,14.428193 C91.5589857,13.9434514 92.5192944,12.6175404 92.5192944,10.2793747 Z M87.8467475,11.9902276 L85.954796,11.9902276 L85.954796,9.09603474 L87.8467475,9.09603474 C89.8676957,9.09603474 89.8676957,11.9902276 87.8467475,11.9902276 Z" id="Shape"></path>
            </g>
        </g>
    </g>
</svg>