<?xml version="1.0" encoding="UTF-8"?>
<svg width="24px" height="23px" viewBox="0 0 24 23" version="1.1" xmlns="http://www.w3.org/2000/svg" xmlns:xlink="http://www.w3.org/1999/xlink">
    <!-- Generator: Sketch 54 (76480) - https://sketchapp.com -->
    <title>Shape</title>
    <desc>Created with Sketch.</desc>
    <g id="Page-1" stroke="none" stroke-width="1" fill="none" fill-rule="evenodd">
        <g id="Artboard" transform="translate(-604.000000, -236.000000)" fill="#FFFFFF" fill-rule="nonzero">
            <path d="M616.000398,236 C609.374398,236 604.000398,241.279297 604.000398,247.790724 C604.000398,253.000258 607.438398,257.419815 612.207398,258.979138 C612.806398,259.088202 613.000398,258.72269 613.000398,258.4122 L613.000398,256.217161 C609.662398,256.9305 608.967398,254.825855 608.967398,254.825855 C608.421398,253.463044 607.634398,253.10048 607.634398,253.10048 C606.545398,252.368472 607.717398,252.384193 607.717398,252.384193 C608.922398,252.466728 609.556398,253.59962 609.556398,253.59962 C610.626398,255.401636 612.363398,254.880879 613.048398,254.579233 C613.155398,253.817749 613.466398,253.296992 613.810398,253.003206 C611.145398,252.703525 608.343398,251.692471 608.343398,247.175641 C608.343398,245.887504 608.812398,244.836165 609.579398,244.010814 C609.455398,243.713098 609.044398,242.513392 609.696398,240.890203 C609.696398,240.890203 610.704398,240.573818 612.997398,242.098752 C613.954398,241.837391 614.980398,241.70671 616.000398,241.701797 C617.020398,241.70671 618.047398,241.837391 619.006398,242.098752 C621.297398,240.573818 622.303398,240.890203 622.303398,240.890203 C622.956398,242.514375 622.545398,243.714081 622.421398,244.010814 C623.191398,244.836165 623.656398,245.888487 623.656398,247.175641 C623.656398,251.704261 620.849398,252.70156 618.177398,252.99338 C618.607398,253.358893 619.000398,254.076162 619.000398,255.176629 L619.000398,258.4122 C619.000398,258.725637 619.192398,259.094097 619.801398,258.978155 C624.566398,257.416867 628.000398,252.998293 628.000398,247.790724 C628.000398,241.279297 622.627398,236 616.000398,236 Z" id="Shape"></path>
        </g>
    </g>
</svg>