<?xml version="1.0" encoding="UTF-8"?>
<svg width="64px" height="65px" viewBox="0 0 64 65" version="1.1" xmlns="http://www.w3.org/2000/svg" xmlns:xlink="http://www.w3.org/1999/xlink">
    <!-- Generator: Sketch 54 (76480) - https://sketchapp.com -->
    <title>noun_Pricing_627725</title>
    <desc>Created with Sketch.</desc>
    <g id="Page-1" stroke="none" stroke-width="1" fill="none" fill-rule="evenodd">
        <g id="Artboard" transform="translate(-233.000000, -79.000000)" fill="#FFFFFF" fill-rule="nonzero">
            <g id="noun_Pricing_627725" transform="translate(233.000000, 79.000000)">
                <path d="M18.6526774,16.1739994 L42.6106416,16.1739994 C44.0740058,16.1667333 45.4796082,16.7510648 46.5150066,17.7971065 C47.550405,18.8431483 48.1298003,20.2642194 48.1244026,21.7444391 L48.1244026,37.7688052 C48.1244026,38.3322611 48.5759749,38.7890323 49.1330174,38.7890323 L53.9138517,38.7890323 C56.0566089,38.7890323 57.7936568,37.0319857 57.7936568,34.8645589 L57.7936568,10.2022705 C57.7936568,8.03484367 56.0566089,6.27779709 53.9138517,6.27779709 L21.5238676,6.27779709 C19.3811104,6.27779709 17.6440625,8.03484367 17.6440625,10.2022705 L17.6440625,15.1809784 C17.6586413,15.7337818 18.1059716,16.1741961 18.6526774,16.1739994 Z M19.6612922,10.1750644 C19.6612922,9.13454929 20.4951956,8.29104513 21.5238676,8.29104513 L53.8802312,8.29104513 C54.9089032,8.29104513 55.7428066,9.13454929 55.7428066,10.1750644 L55.7428066,34.8713604 C55.7428066,35.3710334 55.5465716,35.8502411 55.1972709,36.2035632 C54.8479703,36.5568854 54.3742169,36.7553797 53.8802312,36.7553797 L50.1416323,36.7553797 L50.1416323,21.7444391 C50.1470171,19.7230599 49.3550891,17.7830003 47.9413908,16.3543027 C46.5276924,14.9256051 44.6090078,14.1262929 42.6106416,14.1335453 L19.6612922,14.1335453 L19.6612922,10.1750644 Z M7.49739738,56.0988845 L13.0851235,56.0988845 L13.0851235,62.6555436 C13.0886857,63.6045942 13.6554828,64.4586005 14.5225181,64.8212992 C15.3895533,65.1839979 16.3871198,64.9843973 17.0523418,64.315113 L25.1750532,56.0988845 L42.6106416,56.0988845 C44.6043425,56.1061135 46.5189342,55.3105298 47.931853,53.8877243 C49.3447718,52.4649188 50.1398586,50.5318634 50.1416323,48.5151968 L50.1416323,45.11444 L53.9138517,45.11444 C59.4842776,45.11444 64,40.5467279 64,34.9121695 L64,10.2022705 C64,4.56771207 59.4842776,0 53.9138517,0 L21.5238676,0 C15.9534417,-3.02047882e-16 11.4377193,4.56771207 11.4377193,10.2022705 L11.4377193,14.1335453 L7.49739738,14.1335453 C5.50485324,14.135344 3.59482315,14.9386512 2.1884061,16.3663639 C0.781989049,17.7940766 -0.00532993693,19.7289612 2.71601212e-05,21.7444391 L2.71601212e-05,48.5151968 C0.00373441418,52.7019976 3.35825071,56.0951346 7.49739738,56.0988845 Z M2.01725681,21.7444391 C2.01189711,20.270124 2.58668575,18.8542359 3.61479915,17.8091817 C4.64291256,16.7641276 6.03985414,16.1757962 7.49739738,16.1739994 L12.43961,16.1739994 C12.9966526,16.1739994 13.4482249,15.7172282 13.4482249,15.1537724 L13.4482249,10.2022705 C13.4482249,5.69462375 17.0608028,2.04045409 21.5171435,2.04045409 L53.8802312,2.04045409 C58.3365719,2.04045409 61.9491499,5.69462375 61.9491499,10.2022705 L61.9491499,34.8713604 C61.9491499,39.3790071 58.3365719,43.0331768 53.8802312,43.0331768 L49.099397,43.0331768 C48.5529075,43.0515986 48.120454,43.5071317 48.1244026,44.0602054 L48.1244026,48.5151968 C48.1226325,49.9907045 47.5400747,51.4047657 46.5054583,52.4449125 C45.4708419,53.4850592 44.0693386,54.0656644 42.6106416,54.0584304 L24.7447109,54.0584304 C24.4639882,54.058396 24.1959515,54.176704 24.00506,54.3849031 L23.9176468,54.4665212 L15.6268329,62.8731921 C15.5385339,62.959743 15.4079386,62.985173 15.2941835,62.937967 C15.1804284,62.8907609 15.1051174,62.7798839 15.1023532,62.6555436 L15.1023532,55.0786575 C15.1023532,54.5152016 14.6507809,54.0584304 14.0937383,54.0584304 L7.49739738,54.0584304 C4.47233527,54.0546828 2.02096173,51.5750865 2.01725681,48.5151968 L2.01725681,21.7444391 Z M32.1748402,37.4627371 C31.7953057,35.5221465 30.579919,33.8538811 28.8598594,32.9125245 C28.0206154,32.4610562 27.1562443,32.0590949 26.2710814,31.7086566 L25.9416005,31.5726263 C25.5127619,31.404484 25.1097592,31.1754714 24.7447109,30.892475 L24.7043663,30.8584674 L24.7716073,30.8244598 C24.9224328,30.769068 25.0818412,30.7414262 25.2422942,30.7428417 C26.2231418,30.6834028 27.2026172,30.8801479 28.0865881,31.3141688 C28.6155414,31.6268085 29.2562918,31.6793593 29.8281297,31.4570006 C30.3619821,31.1842833 30.7486751,30.6860094 30.8838132,30.0966979 C31.0317433,29.6409964 31.1595012,29.1784935 31.2872591,28.7363951 L31.4351893,28.2126786 C31.7590022,27.1951097 31.2515163,26.0972393 30.2719202,25.6961185 C29.4985256,25.3469589 28.6854898,25.0956711 27.8512446,24.947952 C27.8512446,23.1455509 27.40073,22.2885602 25.2490183,22.2885602 L24.408506,22.2885602 C23.8307783,22.2295496 23.2576228,22.4377431 22.8489931,22.8550391 C22.4403633,23.2723351 22.240016,23.8540489 22.303863,24.4378385 C22.303863,24.6350824 22.303863,24.8323263 22.303863,25.0635778 L22.303863,25.3152338 C19.6142235,26.3082548 18.1281977,28.2602892 17.9668193,30.9672916 C17.8256132,33.3206153 18.9081931,35.2182376 21.1742144,36.5921434 C21.9387249,37.0325454 22.7369776,37.4101103 23.5612695,37.7211946 C23.8840263,37.8504234 24.2336794,37.9796522 24.5160916,38.122484 C24.8195182,38.2482319 25.1045602,38.4152766 25.363328,38.6189944 C25.4658319,38.6844672 25.5309028,38.795855 25.5381546,38.918261 C25.5381546,38.9998792 25.4372931,39.0814974 25.3028111,39.142711 C24.8778416,39.3208027 24.4132239,39.3795485 23.9579914,39.3127488 C23.0205805,39.2132685 22.1090483,38.9412706 21.2683518,38.5101702 C20.9279002,38.3115484 20.5448605,38.1995147 20.1521514,38.1836976 C19.580603,38.1836976 18.8073316,38.4489566 18.4173339,39.7208397 C18.2425073,40.2853653 18.0878531,40.8498909 17.9331988,41.4212181 C17.7068798,41.9697247 17.7167726,42.5888189 17.9604986,43.1296405 C18.2042246,43.670462 18.6597345,44.0840843 19.2175017,44.2710523 C20.1230012,44.6958801 21.0825434,44.9911774 22.0685196,45.1484475 L22.0685196,45.9170186 C22.0595049,46.4640487 22.2680476,46.9918258 22.647333,47.3818721 C23.0266184,47.7719185 23.5448703,47.9915562 24.0857492,47.9914802 L24.8455724,47.9914802 L25.7264294,47.9914802 C26.2589538,47.9973743 26.7706918,47.7827037 27.1427949,47.3973244 C27.5148979,47.0119452 27.7149862,46.4893923 27.6965903,45.9510262 C27.6965903,45.7945913 27.6965903,45.631355 27.6965903,45.4545157 C27.6965903,45.2776763 27.6965903,45.0124173 27.6965903,44.7743643 C28.9198531,44.3810945 30.0037887,43.6367611 30.8165722,42.6318875 L30.8165722,42.6318875 C32.0094941,41.2003277 32.5076525,39.3044898 32.1748402,37.4627371 Z M29.2969258,41.3395999 L29.2969258,41.3395999 C28.6719315,42.1092469 27.8222695,42.659196 26.8695262,42.9107496 C26.1366454,43.0484653 25.6307249,43.7317783 25.7062571,44.4818992 C25.7062571,44.7879673 25.7062571,45.1008369 25.7062571,45.4205081 C25.7062571,45.5905459 25.7062571,45.7605838 25.7062571,45.9306216 L25.7062571,45.9306216 L25.7062571,45.9306216 C25.1885014,45.9306216 24.6707458,45.9306216 24.1529902,45.9306216 L24.1529902,45.9306216 C24.151592,45.9102416 24.151592,45.889788 24.1529902,45.869408 L24.1529902,44.7811658 C24.1603454,44.4395174 24.0792116,44.1018666 23.9176468,43.8017478 C23.8481465,43.6792833 23.7542699,43.5727459 23.6419587,43.4888782 C23.3684141,43.3159208 23.0562511,43.2153463 22.7342054,43.1964131 C21.82619,43.075462 20.9404839,42.8211263 20.1050827,42.4414451 C20.0069965,42.3943416 19.9125878,42.3397726 19.8226706,42.2782088 C19.8375547,42.1724077 19.8600277,42.0678419 19.8899116,41.9653392 C20.0378417,41.4212181 20.1857719,40.877097 20.3538744,40.3397774 L20.3538744,40.3397774 C21.4044851,40.881128 22.543734,41.2245328 23.7159238,41.3532029 C24.5305568,41.4639533 25.3596445,41.351196 26.1164271,41.0267303 C26.8867271,40.7273548 27.4343895,40.0269899 27.5450104,39.1998206 C27.6556312,38.3726514 27.3116114,37.5502764 26.6476309,37.0546463 C26.2383441,36.7288802 25.7855934,36.4632615 25.3028111,36.2656707 C24.9666062,36.1160374 24.6304012,35.9732056 24.2807481,35.8371754 C23.5572524,35.5638755 22.8558365,35.2341439 22.1828293,34.8509559 C20.5892178,33.8579349 19.8831875,32.6880746 19.9773248,31.1373294 C20.0916345,29.2465087 21.0868011,27.9814271 23.0166175,27.2672682 C24.0454046,26.8863834 24.3143686,26.5123002 24.3210927,25.4308595 L24.3210927,25.0159672 C24.3210927,24.8391278 24.3210927,24.6554869 24.3210927,24.4786476 C24.3210927,24.417434 24.3210927,24.3698234 24.3210927,24.3290143 L25.2624665,24.3290143 C25.4505992,24.3185507 25.6391582,24.3185507 25.8272908,24.3290143 C25.8272908,24.5534642 25.8272908,24.9275475 25.8272908,25.0703793 C25.8272908,26.2946517 26.1971163,26.7299486 27.40073,26.920391 C28.0966054,27.0383149 28.7745839,27.2463361 29.4179596,27.5393287 L29.4717524,27.5393287 L29.4717524,27.5801378 L29.3238222,28.1106559 C29.2027885,28.5391512 29.0817547,28.9676466 28.9405486,29.4165465 C27.7492728,28.8321192 26.4294115,28.56745 25.1078123,28.6479755 C24.7058111,28.6581786 24.3091424,28.7434988 23.9378191,28.8996315 C23.2495452,29.1760436 22.7563244,29.7990215 22.640068,30.5387962 C22.5470054,31.299343 22.871936,32.0505923 23.4873044,32.4976322 C23.9995019,32.8968531 24.5655922,33.2198039 25.1683291,33.4566456 L25.5045341,33.5994774 C26.3182529,33.9201815 27.1130153,34.2880736 27.8848651,34.7013226 C29.0789533,35.3511854 29.9244786,36.5056617 30.191231,37.8504234 C30.4214195,39.0901509 30.0935986,40.3691608 29.2969258,41.3395999 L29.2969258,41.3395999 Z" id="Shape"></path>
            </g>
        </g>
    </g>
</svg>