<?xml version="1.0" encoding="UTF-8"?>
<svg width="24px" height="20px" viewBox="0 0 24 20" version="1.1" xmlns="http://www.w3.org/2000/svg" xmlns:xlink="http://www.w3.org/1999/xlink">
    <!-- Generator: Sketch 54 (76480) - https://sketchapp.com -->
    <title>Shape</title>
    <desc>Created with Sketch.</desc>
    <g id="Page-1" stroke="none" stroke-width="1" fill="none" fill-rule="evenodd">
        <g id="Artboard" transform="translate(-443.000000, -238.000000)" fill="#FFFFFF">
            <path d="M445.846398,241.887 C445.876398,241.592 445.763398,241.301 445.543398,241.103 L443.303398,238.403 L443.303398,238 L450.261398,238 L455.639398,249.795 L460.367398,238 L467.000398,238 L467.000398,238.403 L465.084398,240.24 C464.919398,240.366 464.837398,240.573 464.871398,240.778 L464.871398,254.276 C464.837398,254.48 464.919398,254.687 465.084398,254.813 L466.955398,256.65 L466.955398,257.053 L457.543398,257.053 L457.543398,256.65 L459.482398,254.768 C459.672398,254.578 459.672398,254.522 459.672398,254.231 L459.672398,243.321 L454.283398,257.009 L453.555398,257.009 L447.280398,243.321 L447.280398,252.495 C447.228398,252.88 447.356398,253.269 447.627398,253.547 L450.148398,256.605 L450.148398,257.009 L443.000398,257.009 L443.000398,256.605 L445.521398,253.547 C445.791398,253.268 445.911398,252.877 445.846398,252.495 L445.846398,241.887 L445.846398,241.887 Z" id="Shape"></path>
        </g>
    </g>
</svg>