<?xml version="1.0" encoding="UTF-8"?>
<svg width="24px" height="20px" viewBox="0 0 24 20" version="1.1" xmlns="http://www.w3.org/2000/svg" xmlns:xlink="http://www.w3.org/1999/xlink">
    <!-- Generator: Sketch 54 (76480) - https://sketchapp.com -->
    <title>telegram-1</title>
    <desc>Created with Sketch.</desc>
    <g id="Page-1" stroke="none" stroke-width="1" fill="none" fill-rule="evenodd">
        <g id="Artboard" transform="translate(-327.000000, -238.000000)" fill="#FFFFFF">
            <path d="M345.384398,257.779 C345.706398,258.007 346.121398,258.064 346.491398,257.924 C346.861398,257.783 347.133398,257.467 347.215398,257.084 C348.084398,253 350.192398,242.663 350.983398,238.948 C351.043398,238.668 350.943398,238.377 350.723398,238.19 C350.503398,238.003 350.198398,237.949 349.926398,238.05 C345.733398,239.602 332.820398,244.447 327.542398,246.4 C327.207398,246.524 326.989398,246.846 327.000398,247.199 C327.012398,247.553 327.250398,247.86 327.593398,247.963 C329.960398,248.671 333.067398,249.656 333.067398,249.656 C333.067398,249.656 334.519398,254.041 335.276398,256.271 C335.371398,256.551 335.590398,256.771 335.879398,256.847 C336.167398,256.922 336.475398,256.843 336.690398,256.64 C337.906398,255.492 339.786398,253.717 339.786398,253.717 C339.786398,253.717 343.358398,256.336 345.384398,257.779 Z M334.374398,249.102 L336.053398,254.64 L336.426398,251.133 C336.426398,251.133 342.913398,245.282 346.611398,241.947 C346.719398,241.849 346.734398,241.685 346.644398,241.57 C346.555398,241.455 346.391398,241.428 346.268398,241.506 C341.982398,244.243 334.374398,249.102 334.374398,249.102 Z" id="telegram-1"></path>
        </g>
    </g>
</svg>