<?xml version="1.0" encoding="UTF-8"?>
<svg width="24px" height="20px" viewBox="0 0 24 20" version="1.1" xmlns="http://www.w3.org/2000/svg" xmlns:xlink="http://www.w3.org/1999/xlink">
    <!-- Generator: Sketch 54 (76480) - https://sketchapp.com -->
    <title>Shape</title>
    <desc>Created with Sketch.</desc>
    <g id="Page-1" stroke="none" stroke-width="1" fill="none" fill-rule="evenodd">
        <g id="Artboard" transform="translate(-501.000000, -238.000000)" fill="#FFFFFF" fill-rule="nonzero">
            <path d="M525.000398,240.557 C524.117398,240.949 523.168398,241.213 522.172398,241.332 C523.189398,240.723 523.970398,239.758 524.337398,238.608 C523.386398,239.172 522.332398,239.582 521.210398,239.803 C520.313398,238.846 519.032398,238.248 517.616398,238.248 C514.437398,238.248 512.101398,241.214 512.819398,244.293 C508.728398,244.088 505.100398,242.128 502.671398,239.149 C501.381398,241.362 502.002398,244.257 504.194398,245.723 C503.388398,245.697 502.628398,245.476 501.965398,245.107 C501.911398,247.388 503.546398,249.522 505.914398,249.997 C505.221398,250.185 504.462398,250.229 503.690398,250.081 C504.316398,252.037 506.134398,253.46 508.290398,253.5 C506.220398,255.123 503.612398,255.848 501.000398,255.54 C503.179398,256.937 505.768398,257.752 508.548398,257.752 C517.690398,257.752 522.855398,250.031 522.543398,243.106 C523.505398,242.411 524.340398,241.544 525.000398,240.557 Z" id="Shape"></path>
        </g>
    </g>
</svg>