<?xml version="1.0" encoding="UTF-8"?>
<svg width="209px" height="169px" viewBox="0 0 209 169" version="1.1" xmlns="http://www.w3.org/2000/svg" xmlns:xlink="http://www.w3.org/1999/xlink">
    <!-- Generator: Sketch 54 (76480) - https://sketchapp.com -->
    <title>uniswap</title>
    <desc>Created with Sketch.</desc>
    <g id="Page-1" stroke="none" stroke-width="1" fill="none" fill-rule="evenodd">
        <g id="uniswap" fill="#FFFFFF" fill-rule="nonzero">
            <path d="M37.448,89.81 C42.225,90.159 46.996,90.676 51.779,90.824 C66.753,91.284 81.733,91.557 96.707,92.001 C102.922,92.185 106.881,95.888 106.964,101.273 C107.048,106.711 102.652,111.083 96.487,110.958 C74.694,110.519 52.905,109.844 31.114,109.3 C24.954,109.146 18.788,109.196 12.628,109.041 C4.153,108.829 0.787,105.52 0.974,97.008 C1.567,70.05 2.296,43.095 3.047,16.14 C3.207,10.412 6.884,6.568 12.213,6.124 C17.356,5.697 21.826,9.208 22.56,14.843 C22.961,17.925 22.382,21.126 22.356,24.275 C22.228,40.263 22.133,56.253 22.053,72.242 C22.051,72.691 22.353,73.143 22.786,74.358 C25.15,72.423 27.361,70.79 29.373,68.939 C47.624,52.15 65.922,35.412 84.038,18.476 C96.351,6.965 110.583,0.021 127.581,0.184 C143.52,0.337 157.56,5.751 168.879,17.373 C172.017,20.595 175.347,23.639 178.355,26.976 C182.948,32.072 182.849,36.812 178.349,41.02 C174.981,44.168 168.738,43.822 164.72,40.079 C161.432,37.015 158.322,33.759 155.134,30.586 C140.255,15.78 117.491,14.819 101.866,28.763 C88.209,40.95 74.946,53.576 61.485,65.984 C54.879,72.074 48.244,78.132 41.565,84.142 C39.968,85.58 38.142,86.763 36.421,88.063 C36.763,88.644 37.105,89.227 37.448,89.81 Z" id="Path"></path>
            <path d="M187.316,93.742 C184.176,96.366 181.314,98.564 178.67,101 C160.174,118.036 141.631,135.023 123.28,152.216 C103.208,171.022 71.045,173.683 48.6,157.428 C41.939,152.605 36.423,146.092 30.823,139.952 C27.167,135.944 27.819,130.799 31.513,127.447 C35.297,124.013 40.513,124.207 44.501,127.946 C49.599,132.727 54.335,137.975 59.848,142.217 C73.124,152.43 94.759,151.589 107.138,140.334 C125.988,123.195 144.539,105.73 163.214,88.397 C166.468,85.376 169.7,82.332 173.845,78.455 C166.954,77.97 161.252,77.392 155.536,77.2 C141.724,76.737 127.903,76.477 114.088,76.092 C107.35,75.904 103.182,72.44 103.064,67.059 C102.935,61.12 107.319,56.955 114.368,57.093 C142.509,57.645 170.647,58.317 198.782,59.113 C205.619,59.306 209.145,63.118 208.999,70.044 C208.421,97.516 207.715,124.985 206.946,152.452 C206.789,158.048 203.194,161.605 197.966,161.977 C192.593,162.36 188.609,159.527 187.601,154.003 C187.042,150.937 187.232,147.714 187.269,144.564 C187.46,128.41 187.718,112.256 187.921,96.102 C187.93,95.512 187.629,94.918 187.316,93.742 Z" id="Path"></path>
        </g>
    </g>
</svg>