<?xml version="1.0" encoding="UTF-8"?>
<svg width="117px" height="84px" viewBox="0 0 117 84" version="1.1" xmlns="http://www.w3.org/2000/svg" xmlns:xlink="http://www.w3.org/1999/xlink">
    <!-- Generator: Sketch 53.2 (72643) - https://sketchapp.com -->
    <title>Group</title>
    <desc>Created with Sketch.</desc>
    <g id="Page-1" stroke="none" stroke-width="1" fill="none" fill-rule="evenodd">
        <g id="Group" fill-rule="nonzero">
            <path d="M79.6,75.2008458 C92.7,71.5008458 97.7,63.4008458 97.7,63.4008458 C93.6,66.1008458 89.7,68.0008458 86.2,69.3008458 C81.2,71.4008458 76.4,72.7008458 71.7,73.6008458 C62.1,75.4008458 53.3,74.9008458 45.8,73.5008458 C40.1,72.4008458 35.2,70.9008458 31.1,69.2008458 C28.8,68.3008458 26.3,67.2008458 23.8,65.8008458 C23.5,65.6008458 23.2,65.5008458 22.9,65.3008458 C22.7,65.2008458 22.6,65.1008458 22.5,65.1008458 C20.7,64.1008458 19.7,63.4008458 19.7,63.4008458 C19.7,63.4008458 24.5,71.3008458 37.2,75.1008458 C34.2,78.9008458 30.5,83.3008458 30.5,83.3008458 C8.4,82.6008458 -7.10542736e-15,68.2008458 -7.10542736e-15,68.2008458 C-7.10542736e-15,36.3008458 14.4,10.4008458 14.4,10.4008458 C28.8,-0.299154202 42.4,0.000845798418 42.4,0.000845798418 L43.4,1.2008458 C25.4,6.3008458 17.2,14.2008458 17.2,14.2008458 C17.2,14.2008458 19.4,13.0008458 23.1,11.4008458 C33.8,6.7008458 42.3,5.5008458 45.8,5.1008458 C46.4,5.0008458 46.9,4.9008458 47.5,4.9008458 C53.6,4.1008458 60.5,3.9008458 67.7,4.7008458 C77.2,5.8008458 87.4,8.6008458 97.8,14.2008458 C97.8,14.2008458 89.9,6.7008458 72.9,1.6008458 L74.3,0.000845798418 C74.3,0.000845798418 88,-0.299154202 102.3,10.4008458 C102.3,10.4008458 116.7,36.3008458 116.7,68.2008458 C116.7,68.1008458 108.3,82.5008458 86.2,83.2008458 C86.2,83.2008458 82.6,78.9008458 79.6,75.2008458 Z" id="Path" fill="#2e3c4f"></path>
            <path d="M76.2,36.9008458 C70.5,36.9008458 66,41.8008458 66,47.9008458 C66,54.0008458 70.6,58.9008458 76.2,58.9008458 C81.9,58.9008458 86.4,54.0008458 86.4,47.9008458 C86.4,41.8008458 81.8,36.9008458 76.2,36.9008458 Z M39.7,36.9008458 C34,36.9008458 29.5,41.8008458 29.5,47.9008458 C29.5,54.0008458 34.1,58.9008458 39.7,58.9008458 C45.4,58.9008458 49.9,54.0008458 49.9,47.9008458 C50,41.8008458 45.4,36.9008458 39.7,36.9008458 Z" id="Shape" fill="#78B4E5"></path>
        </g>
    </g>
</svg>