<?xml version="1.0" encoding="UTF-8"?>
<svg width="24px" height="20px" viewBox="0 0 24 20" version="1.1" xmlns="http://www.w3.org/2000/svg" xmlns:xlink="http://www.w3.org/1999/xlink">
    <!-- Generator: Sketch 50.2 (55047) - http://www.bohemiancoding.com/sketch -->
    <title>iconmonstr-telegram-1</title>
    <desc>Created with Sketch.</desc>
    <defs></defs>
    <g id="Page-1" stroke="none" stroke-width="1" fill="none" fill-rule="evenodd">
        <g id="DexWallet-Landing-Page-02@2x" transform="translate(-1013.000000, -1919.000000)" fill="#2E3C4F">
            <g id="iconmonstr-telegram-1" transform="translate(1013.000000, 1919.000000)">
                <path d="M18.384,19.779 C18.706,20.007 19.121,20.064 19.491,19.924 C19.861,19.783 20.133,19.467 20.215,19.084 C21.084,15 23.192,4.663 23.983,0.948 C24.043,0.668 23.943,0.377 23.723,0.19 C23.503,0.003 23.198,-0.051 22.926,0.05 C18.733,1.602 5.82,6.447 0.542,8.4 C0.207,8.524 -0.011,8.846 -1.9981846e-15,9.199 C0.012,9.553 0.25,9.86 0.593,9.963 C2.96,10.671 6.067,11.656 6.067,11.656 C6.067,11.656 7.519,16.041 8.276,18.271 C8.371,18.551 8.59,18.771 8.879,18.847 C9.167,18.922 9.475,18.843 9.69,18.64 C10.906,17.492 12.786,15.717 12.786,15.717 C12.786,15.717 16.358,18.336 18.384,19.779 Z M7.374,11.102 L9.053,16.64 L9.426,13.133 C9.426,13.133 15.913,7.282 19.611,3.947 C19.719,3.849 19.734,3.685 19.644,3.57 C19.555,3.455 19.391,3.428 19.268,3.506 C14.982,6.243 7.374,11.102 7.374,11.102 Z" id="telegram-1"></path>
            </g>
        </g>
    </g>
</svg>