<?xml version="1.0" encoding="UTF-8"?>
<svg width="24px" height="20px" viewBox="0 0 24 20" version="1.1" xmlns="http://www.w3.org/2000/svg" xmlns:xlink="http://www.w3.org/1999/xlink">
    <!-- Generator: Sketch 50.2 (55047) - http://www.bohemiancoding.com/sketch -->
    <title>iconmonstr-medium-1</title>
    <desc>Created with Sketch.</desc>
    <defs></defs>
    <g id="Page-1" stroke="none" stroke-width="1" fill="none" fill-rule="evenodd">
        <g id="DexWallet-Landing-Page-02@2x" transform="translate(-1129.000000, -1919.000000)" fill="#2E3C4F">
            <g id="iconmonstr-medium-1" transform="translate(1129.000000, 1919.000000)">
                <path d="M2.846,3.887 C2.876,3.592 2.763,3.301 2.543,3.103 L0.303,0.403 L0.303,-4.4408921e-16 L7.261,-4.4408921e-16 L12.639,11.795 L17.367,9.86076132e-32 L24,-4.4408921e-16 L24,0.403 L22.084,2.24 C21.919,2.366 21.837,2.573 21.871,2.778 L21.871,16.276 C21.837,16.48 21.919,16.687 22.084,16.813 L23.955,18.65 L23.955,19.053 L14.543,19.053 L14.543,18.65 L16.482,16.768 C16.672,16.578 16.672,16.522 16.672,16.231 L16.672,5.321 L11.283,19.009 L10.555,19.009 L4.28,5.321 L4.28,14.495 C4.228,14.88 4.356,15.269 4.627,15.547 L7.148,18.605 L7.148,19.009 L-6.21724894e-15,19.009 L-6.21724894e-15,18.605 L2.521,15.547 C2.791,15.268 2.911,14.877 2.846,14.495 L2.846,3.887 Z" id="Shape"></path>
            </g>
        </g>
    </g>
</svg>