<?xml version="1.0" encoding="UTF-8"?>
<svg width="24px" height="20px" viewBox="0 0 24 20" version="1.1" xmlns="http://www.w3.org/2000/svg" xmlns:xlink="http://www.w3.org/1999/xlink">
    <!-- Generator: Sketch 50.2 (55047) - http://www.bohemiancoding.com/sketch -->
    <title>iconmonstr-wechat-1</title>
    <desc>Created with Sketch.</desc>
    <defs></defs>
    <g id="Page-1" stroke="none" stroke-width="1" fill="none" fill-rule="evenodd">
        <g id="DexWallet-Landing-Page-02@2x" transform="translate(-1072.000000, -1919.000000)" fill="#2E3C4F">
            <g id="iconmonstr-wechat-1" transform="translate(1072.000000, 1919.000000)">
                <path d="M21.502,17.525 C23.026,16.42 24,14.787 24,12.971 C24,9.645 20.763,6.948 16.771,6.948 C12.779,6.948 9.542,9.645 9.542,12.971 C9.542,16.298 12.779,18.995 16.771,18.995 C17.596,18.995 18.392,18.878 19.131,18.665 L19.343,18.633 C19.482,18.633 19.608,18.676 19.727,18.744 L21.31,19.658 L21.449,19.703 C21.582,19.703 21.69,19.595 21.69,19.462 L21.651,19.286 L21.325,18.071 L21.3,17.917 C21.3,17.755 21.38,17.612 21.502,17.525 Z M8.675,0.297 C3.884,0.297 -1.77635684e-15,3.533 -1.77635684e-15,7.526 C-1.77635684e-15,9.704 1.168,11.665 2.997,12.99 C3.144,13.094 3.24,13.266 3.24,13.461 L3.21,13.645 L2.819,15.103 L2.772,15.314 C2.772,15.474 2.902,15.604 3.061,15.604 L3.229,15.55 L5.128,14.453 C5.27,14.371 5.421,14.32 5.588,14.32 L5.843,14.358 C6.729,14.613 7.685,14.755 8.675,14.755 L9.151,14.743 C8.963,14.179 8.86,13.585 8.86,12.972 C8.86,9.331 12.402,6.379 16.771,6.379 L17.242,6.391 C16.589,2.938 13.002,0.297 8.675,0.297 Z M14.361,12.008 C13.829,12.008 13.398,11.576 13.398,11.044 C13.398,10.511 13.829,10.08 14.361,10.08 C14.894,10.08 15.325,10.511 15.325,11.044 C15.325,11.576 14.894,12.008 14.361,12.008 Z M19.181,12.008 C18.648,12.008 18.217,11.576 18.217,11.044 C18.217,10.511 18.648,10.08 19.181,10.08 C19.713,10.08 20.144,10.511 20.144,11.044 C20.144,11.576 19.713,12.008 19.181,12.008 Z M5.783,6.369 C5.144,6.369 4.627,5.851 4.627,5.213 C4.627,4.574 5.144,4.056 5.783,4.056 C6.422,4.056 6.94,4.574 6.94,5.213 C6.94,5.851 6.422,6.369 5.783,6.369 Z M11.566,6.369 C10.927,6.369 10.41,5.851 10.41,5.213 C10.41,4.574 10.927,4.056 11.566,4.056 C12.205,4.056 12.723,4.574 12.723,5.213 C12.723,5.851 12.205,6.369 11.566,6.369 Z" id="Shape"></path>
            </g>
        </g>
    </g>
</svg>