<svg width="117" height="84" xmlns="http://www.w3.org/2000/svg">
 <!-- Generator: Sketch 53.2 (72643) - https://sketchapp.com -->

 <title>Group</title>
 <desc>Created with Sketch.</desc>
 <g>
  <title>background</title>
  <rect fill="none" id="canvas_background" height="402" width="582" y="-1" x="-1"/>
 </g>
 <g>
  <title>Layer 1</title>
  <path fill="#2e3c4f" id="Path" d="m79.736172,75.20085c13.1,-3.7 18.1,-11.8 18.1,-11.8c-4.1,2.7 -8,4.6 -11.5,5.9c-5,2.1 -9.8,3.4 -14.5,4.3c-9.6,1.8 -18.4,1.3 -25.9,-0.1c-5.7,-1.1 -10.6,-2.6 -14.7,-4.3c-2.3,-0.9 -4.8,-2 -7.3,-3.4c-0.3,-0.2 -0.6,-0.3 -0.9,-0.5c-0.2,-0.1 -0.3,-0.2 -0.4,-0.2c-1.8,-1 -2.8,-1.7 -2.8,-1.7c0,0 4.8,7.9 17.5,11.7c-3,3.8 -6.7,8.2 -6.7,8.2c-22.1,-0.7 -30.5,-15.1 -30.5,-15.1c0,-31.9 14.4,-57.8 14.4,-57.8c14.4,-10.7 28,-10.4 28,-10.4l1,1.2c-18,5.1 -26.2,13 -26.2,13c0,0 2.2,-1.2 5.9,-2.8c10.7,-4.7 19.2,-5.9 22.7,-6.3c0.6,-0.1 1.1,-0.2 1.7,-0.2c6.1,-0.8 13,-1 20.2,-0.2c9.5,1.1 19.7,3.9 30.1,9.5c0,0 -7.9,-7.5 -24.9,-12.6l1.4,-1.6c0,0 13.7,-0.3 28,10.4c0,0 14.4,25.9 14.4,57.8c0,-0.1 -8.4,14.3 -30.5,15c0,0 -3.6,-4.3 -6.6,-8z"/>
  <path fill="#78B4E5" id="Shape" d="m76.2,36.90085c-5.7,0 -10.2,4.9 -10.2,11c0,6.1 4.6,11 10.2,11c5.7,0 10.2,-4.9 10.2,-11c0,-6.1 -4.6,-11 -10.2,-11zm-36.5,0c-5.7,0 -10.2,4.9 -10.2,11c0,6.1 4.6,11 10.2,11c5.7,0 10.2,-4.9 10.2,-11c0.1,-6.1 -4.5,-11 -10.2,-11z"/>
 </g>
</svg>