<?xml version="1.0" encoding="UTF-8" standalone="no"?>
<!-- Created with Inkscape (http://www.inkscape.org/) -->

<svg
   xmlns:dc="http://purl.org/dc/elements/1.1/"
   xmlns:cc="http://creativecommons.org/ns#"
   xmlns:rdf="http://www.w3.org/1999/02/22-rdf-syntax-ns#"
   xmlns:svg="http://www.w3.org/2000/svg"
   xmlns="http://www.w3.org/2000/svg"
   xmlns:sodipodi="http://sodipodi.sourceforge.net/DTD/sodipodi-0.dtd"
   xmlns:inkscape="http://www.inkscape.org/namespaces/inkscape"
   id="svg2"
   version="1.1"
   inkscape:version="0.91 r13725"
   xml:space="preserve"
   width="1932.74"
   height="800"
   viewBox="0 0 1932.74 800"
   sodipodi:docname="ubiq.svg"><metadata
     id="metadata8"><rdf:RDF><cc:Work
         rdf:about=""><dc:format>image/svg+xml</dc:format><dc:type
           rdf:resource="http://purl.org/dc/dcmitype/StillImage" /><dc:title></dc:title></cc:Work></rdf:RDF></metadata><defs
     id="defs6"><clipPath
       clipPathUnits="userSpaceOnUse"
       id="clipPath34"><path
         d="m 0,1200 1920,0 L 1920,0 0,0 0,1200 Z"
         id="path36"
         inkscape:connector-curvature="0" /></clipPath><clipPath
       clipPathUnits="userSpaceOnUse"
       id="clipPath72"><path
         d="m 0,1200 1920,0 L 1920,0 0,0 0,1200 Z"
         id="path74"
         inkscape:connector-curvature="0" /></clipPath></defs><sodipodi:namedview
     pagecolor="#ffffff"
     bordercolor="#666666"
     borderopacity="1"
     objecttolerance="10"
     gridtolerance="10"
     guidetolerance="10"
     inkscape:pageopacity="0"
     inkscape:pageshadow="2"
     inkscape:window-width="1094"
     inkscape:window-height="662"
     id="namedview4"
     showgrid="false"
     inkscape:zoom="0.18443702"
     inkscape:cx="911.52642"
     inkscape:cy="781.34385"
     inkscape:window-x="181"
     inkscape:window-y="119"
     inkscape:window-maximized="0"
     inkscape:current-layer="g10" /><g
     id="g10"
     inkscape:groupmode="layer"
     inkscape:label="ubiq v2"
     transform="matrix(1.25,0,0,-1.25,0,800)"><g
       id="g3426"
       transform="matrix(1.2932073,0,0,1.2932073,426.84887,-108.88438)"
       inkscape:export-filename="/home/xocel/_UBIQ/ubiqsmart-new/multipurpose/images/header-logo.png"
       inkscape:export-xdpi="90"
       inkscape:export-ydpi="90"><g
         transform="translate(-619.55272,-355.78275)"
         id="g3416"><g
           id="g52"
           transform="translate(289.4804,605.611)"><path
             d="m 0,0 149.456,-89.981 0,204.207 L 0,0 Z"
             style="fill:#0ca579;fill-opacity:1;fill-rule:nonzero;stroke:none"
             id="path54"
             inkscape:connector-curvature="0" /></g><g
           id="g56"
           transform="translate(519.765,934.8735)"><path
             d="m 0,0 0,-196.574 -230.285,-132.689 0,199.633 L 0,0 Z"
             style="fill:#00ea90;fill-opacity:1;fill-rule:nonzero;stroke:none"
             id="path58"
             inkscape:connector-curvature="0" /></g><g
           id="g60"
           transform="translate(721.075,769.2418)"><path
             d="m 0,0 -149.457,89.975 0,-204.201 L 0,0 Z"
             style="fill:#333333;fill-opacity:1;fill-rule:nonzero;stroke:none"
             id="path62"
             inkscape:connector-curvature="0" /></g><g
           id="g64"
           transform="translate(490.7904,439.9799)"><path
             d="m 0,0 0,196.574 230.285,132.688 0,-199.632 L 0,0 Z"
             style="fill:#494949;fill-opacity:1;fill-rule:nonzero;stroke:none"
             id="path66"
             inkscape:connector-curvature="0" /></g></g><g
         transform="translate(30.4,60.98275)"
         id="g68"><g
           clip-path="url(#clipPath72)"
           id="g70"><g
             transform="translate(198.0978,213.1602)"
             id="g76"><path
               inkscape:connector-curvature="0"
               id="path78"
               style="fill:#494949;fill-opacity:1;fill-rule:nonzero;stroke:none"
               d="m 0,0 c -7.342,0 -14.156,1.059 -20.437,3.177 -6.283,2.117 -11.754,5.294 -16.413,9.53 -4.66,4.236 -8.297,9.531 -10.907,15.885 -2.615,6.353 -3.919,13.766 -3.919,22.237 l 0,94.882 15.249,0 0,-93.823 c 0,-12.85 3.246,-22.449 9.743,-28.803 6.492,-6.354 15.387,-9.531 26.684,-9.531 11.153,0 20.015,3.177 26.579,9.531 6.567,6.354 9.85,15.953 9.85,28.803 l 0,93.823 15.248,0 0,-94.882 C 51.677,42.358 50.37,34.945 47.759,28.592 45.145,22.238 41.512,16.943 36.851,12.707 32.193,8.471 26.719,5.294 20.439,3.177 14.155,1.059 7.34,0 0,0" /></g><g
             transform="translate(414.968,228.409)"
             id="g80"><path
               inkscape:connector-curvature="0"
               id="path82"
               style="fill:#494949;fill-opacity:1;fill-rule:nonzero;stroke:none"
               d="m 0,0 c 5.507,0 10.236,0.741 14.19,2.224 3.952,1.482 7.165,3.527 9.637,6.142 2.468,2.611 4.305,5.682 5.507,9.213 1.198,3.527 1.8,7.412 1.8,11.648 0,8.472 -2.578,15.461 -7.731,20.967 -5.155,5.507 -13.237,8.26 -24.25,8.26 l -36.851,0 L -37.698,0 0,0 Z m -2.964,71.373 c 8.328,0 14.295,2.128 17.895,6.384 3.601,4.255 5.402,9.715 5.402,16.383 0,3.264 -0.46,6.278 -1.377,9.045 -0.92,2.766 -2.403,5.175 -4.448,7.234 -2.048,2.055 -4.659,3.65 -7.836,4.785 -3.177,1.135 -7.095,1.704 -11.754,1.704 l -32.616,0 0,-45.535 34.734,0 z m -49.983,59.09 48.924,0 c 6.777,0 12.634,-0.92 17.578,-2.76 4.941,-1.84 9.034,-4.385 12.284,-7.638 3.246,-3.256 5.682,-7.039 7.307,-11.354 1.621,-4.315 2.435,-8.879 2.435,-13.69 0,-7.214 -1.555,-13.3 -4.659,-18.251 -3.108,-4.95 -7.767,-8.418 -13.978,-10.397 9.318,-2.257 16.589,-6.698 21.814,-13.323 5.222,-6.625 7.836,-14.733 7.836,-24.316 0,-5.92 -0.92,-11.453 -2.753,-16.599 -1.836,-5.146 -4.659,-9.62 -8.472,-13.426 -3.812,-3.805 -8.577,-6.803 -14.295,-8.988 -5.719,-2.184 -12.39,-3.276 -20.015,-3.276 l -54.006,0 0,144.018 z" /></g><path
             inkscape:connector-curvature="0"
             id="path84"
             style="fill:#494949;fill-opacity:1;fill-rule:nonzero;stroke:none"
             d="m 565.762,358.872 15.46,0 0,-144.017 -15.46,0 0,144.017 z" /><g
             transform="translate(753.8316,257.4242)"
             id="g86"><path
               inkscape:connector-curvature="0"
               id="path88"
               style="fill:#494949;fill-opacity:1;fill-rule:nonzero;stroke:none"
               d="m 0,0 14.825,0 0,-30.498 c 7.452,0.847 14.269,2.929 20.458,6.248 6.185,3.316 11.525,7.624 16.026,12.919 4.5,5.295 7.979,11.4 10.441,18.32 2.462,6.916 3.693,14.471 3.693,22.662 0,8.61 -1.449,16.552 -4.342,23.826 -2.896,7.27 -6.956,13.587 -12.178,18.955 -5.225,5.364 -11.367,9.564 -18.425,12.602 -7.063,3.034 -14.826,4.553 -23.297,4.553 -8.333,0 -16.064,-1.519 -23.191,-4.553 -7.132,-3.038 -13.274,-7.238 -18.426,-12.602 -5.156,-5.368 -9.18,-11.685 -12.072,-18.955 -2.896,-7.274 -4.342,-15.216 -4.342,-23.826 0,-8.191 1.271,-15.746 3.812,-22.662 2.542,-6.92 6.036,-13.025 10.484,-18.32 4.447,-5.295 9.776,-9.603 15.99,-12.919 6.212,-3.319 13.058,-5.401 20.544,-6.248 L 0,0 Z m 14.825,-76.668 -14.825,0 0,32.616 c -9.319,0.847 -18.039,3.246 -26.156,7.201 -8.121,3.95 -15.18,9.139 -21.179,15.566 -6.004,6.423 -10.732,13.942 -14.19,22.556 -3.462,8.61 -5.189,18.002 -5.189,28.168 0,10.871 1.939,20.825 5.824,29.862 3.882,9.034 9.14,16.801 15.778,23.297 6.635,6.493 14.471,11.542 23.509,15.143 9.034,3.601 18.638,5.401 28.804,5.401 10.304,0 19.941,-1.8 28.909,-5.401 C 45.074,94.14 52.911,89.091 59.618,82.598 66.323,76.102 71.617,68.335 75.503,59.301 79.384,50.264 81.327,40.31 81.327,29.439 81.327,19.273 79.603,9.881 76.154,1.271 72.706,-7.343 67.99,-14.862 62.007,-21.285 56.024,-27.712 48.989,-32.864 40.898,-36.746 32.804,-40.631 24.114,-42.993 14.825,-43.841 l 0,-32.827 z" /></g></g></g></g></g></svg>